ISO-10303-21;
HEADER;
/* Generated by software containing ST-Developer
 * from STEP Tools, Inc. (www.steptools.com) 
 */

FILE_DESCRIPTION(
/* description */ (''),
/* implementation_level */ '2;1');

FILE_NAME(
/* name */ 'SpotiDisplay Bottom Cover.step',
/* time_stamp */ '2026-08-17T15:31:42-07:00',
/* author */ (''),
/* organization */ (''),
/* preprocessor_version */ 'ST-DEVELOPER v20.1',
/* originating_system */ 'Autodesk Translation Framework v15.8.0.0',
/* authorisation */ '');

FILE_SCHEMA (('AUTOMOTIVE_DESIGN { 1 0 10303 214 3 1 1 }'));
ENDSEC;

DATA;
#10=MECHANICAL_DESIGN_GEOMETRIC_PRESENTATION_REPRESENTATION('',(#13),#1331);
#11=SHAPE_REPRESENTATION_RELATIONSHIP('SRR','None',#1338,#12);
#12=ADVANCED_BREP_SHAPE_REPRESENTATION('',(#14),#1330);
#13=STYLED_ITEM('',(#1349),#14);
#14=MANIFOLD_SOLID_BREP('Cover',#609);
#15=CONICAL_SURFACE('',#650,28.99608128638,0.785398163397448);
#16=CONICAL_SURFACE('',#654,24.49608128638,0.785398163397448);
#17=CONICAL_SURFACE('',#658,3.4960812858543,0.785398163397448);
#18=CONICAL_SURFACE('',#663,3.49608128585432,0.785398163397448);
#19=CONICAL_SURFACE('',#666,1.,0.785398163397448);
#20=CONICAL_SURFACE('',#668,1.,0.785398163397448);
#21=CONICAL_SURFACE('',#676,24.1728579816766,0.392699081698727);
#22=FACE_BOUND('',#169,.T.);
#23=FACE_BOUND('',#170,.T.);
#24=FACE_BOUND('',#187,.T.);
#25=FACE_BOUND('',#188,.T.);
#26=FACE_BOUND('',#198,.T.);
#27=FACE_BOUND('',#200,.T.);
#28=PLANE('',#640);
#29=PLANE('',#657);
#30=PLANE('',#661);
#31=PLANE('',#662);
#32=PLANE('',#672);
#33=PLANE('',#673);
#34=PLANE('',#677);
#35=PLANE('',#679);
#36=PLANE('',#685);
#37=PLANE('',#687);
#38=TOROIDAL_SURFACE('',#627,3.24608128585432,0.75);
#39=TOROIDAL_SURFACE('',#633,3.2460812858543,0.75);
#40=TOROIDAL_SURFACE('',#648,36.0671490982455,5.);
#41=LINE('',#906,#75);
#42=LINE('',#907,#76);
#43=LINE('',#918,#77);
#44=LINE('',#919,#78);
#45=LINE('',#930,#79);
#46=LINE('',#931,#80);
#47=LINE('',#1190,#81);
#48=LINE('',#1193,#82);
#49=LINE('',#1196,#83);
#50=LINE('',#1199,#84);
#51=LINE('',#1203,#85);
#52=LINE('',#1208,#86);
#53=LINE('',#1209,#87);
#54=LINE('',#1210,#88);
#55=LINE('',#1211,#89);
#56=LINE('',#1215,#90);
#57=LINE('',#1221,#91);
#58=LINE('',#1222,#92);
#59=LINE('',#1223,#93);
#60=LINE('',#1226,#94);
#61=LINE('',#1228,#95);
#62=LINE('',#1230,#96);
#63=LINE('',#1231,#97);
#64=LINE('',#1240,#98);
#65=LINE('',#1253,#99);
#66=LINE('',#1255,#100);
#67=LINE('',#1262,#101);
#68=LINE('',#1304,#102);
#69=LINE('',#1306,#103);
#70=LINE('',#1308,#104);
#71=LINE('',#1313,#105);
#72=LINE('',#1317,#106);
#73=LINE('',#1325,#107);
#74=LINE('',#1327,#108);
#75=VECTOR('',#701,10.);
#76=VECTOR('',#702,10.);
#77=VECTOR('',#715,10.);
#78=VECTOR('',#716,10.);
#79=VECTOR('',#729,10.);
#80=VECTOR('',#730,10.);
#81=VECTOR('',#757,10.);
#82=VECTOR('',#760,10.);
#83=VECTOR('',#763,10.);
#84=VECTOR('',#766,10.);
#85=VECTOR('',#769,10.);
#86=VECTOR('',#774,10.);
#87=VECTOR('',#775,10.);
#88=VECTOR('',#776,10.);
#89=VECTOR('',#777,10.);
#90=VECTOR('',#780,10.);
#91=VECTOR('',#787,10.);
#92=VECTOR('',#788,10.);
#93=VECTOR('',#789,10.);
#94=VECTOR('',#792,10.);
#95=VECTOR('',#793,10.);
#96=VECTOR('',#794,10.);
#97=VECTOR('',#795,10.);
#98=VECTOR('',#810,10.);
#99=VECTOR('',#815,10.);
#100=VECTOR('',#818,10.);
#101=VECTOR('',#827,10.);
#102=VECTOR('',#830,10.);
#103=VECTOR('',#833,10.);
#104=VECTOR('',#836,10.);
#105=VECTOR('',#843,1.35);
#106=VECTOR('',#848,1.35);
#107=VECTOR('',#859,3.);
#108=VECTOR('',#862,3.);
#109=CYLINDRICAL_SURFACE('',#625,0.75);
#110=CYLINDRICAL_SURFACE('',#631,0.75);
#111=CYLINDRICAL_SURFACE('',#637,0.75);
#112=CYLINDRICAL_SURFACE('',#652,1.);
#113=CYLINDRICAL_SURFACE('',#669,23.99608128638);
#114=CYLINDRICAL_SURFACE('',#671,1.);
#115=CYLINDRICAL_SURFACE('',#678,3.9960812858543);
#116=CYLINDRICAL_SURFACE('',#680,3.99608128585432);
#117=CYLINDRICAL_SURFACE('',#681,1.35);
#118=CYLINDRICAL_SURFACE('',#683,1.35);
#119=CYLINDRICAL_SURFACE('',#689,3.);
#120=CYLINDRICAL_SURFACE('',#690,3.);
#121=FACE_OUTER_BOUND('',#159,.T.);
#122=FACE_OUTER_BOUND('',#160,.T.);
#123=FACE_OUTER_BOUND('',#161,.T.);
#124=FACE_OUTER_BOUND('',#162,.T.);
#125=FACE_OUTER_BOUND('',#163,.T.);
#126=FACE_OUTER_BOUND('',#164,.T.);
#127=FACE_OUTER_BOUND('',#165,.T.);
#128=FACE_OUTER_BOUND('',#166,.T.);
#129=FACE_OUTER_BOUND('',#167,.T.);
#130=FACE_OUTER_BOUND('',#168,.T.);
#131=FACE_OUTER_BOUND('',#171,.T.);
#132=FACE_OUTER_BOUND('',#172,.T.);
#133=FACE_OUTER_BOUND('',#173,.T.);
#134=FACE_OUTER_BOUND('',#174,.T.);
#135=FACE_OUTER_BOUND('',#175,.T.);
#136=FACE_OUTER_BOUND('',#176,.T.);
#137=FACE_OUTER_BOUND('',#177,.T.);
#138=FACE_OUTER_BOUND('',#178,.T.);
#139=FACE_OUTER_BOUND('',#179,.T.);
#140=FACE_OUTER_BOUND('',#180,.T.);
#141=FACE_OUTER_BOUND('',#181,.T.);
#142=FACE_OUTER_BOUND('',#182,.T.);
#143=FACE_OUTER_BOUND('',#183,.T.);
#144=FACE_OUTER_BOUND('',#184,.T.);
#145=FACE_OUTER_BOUND('',#185,.T.);
#146=FACE_OUTER_BOUND('',#186,.T.);
#147=FACE_OUTER_BOUND('',#189,.T.);
#148=FACE_OUTER_BOUND('',#190,.T.);
#149=FACE_OUTER_BOUND('',#191,.T.);
#150=FACE_OUTER_BOUND('',#192,.T.);
#151=FACE_OUTER_BOUND('',#193,.T.);
#152=FACE_OUTER_BOUND('',#194,.T.);
#153=FACE_OUTER_BOUND('',#195,.T.);
#154=FACE_OUTER_BOUND('',#196,.T.);
#155=FACE_OUTER_BOUND('',#197,.T.);
#156=FACE_OUTER_BOUND('',#199,.T.);
#157=FACE_OUTER_BOUND('',#201,.T.);
#158=FACE_OUTER_BOUND('',#202,.T.);
#159=EDGE_LOOP('',(#393,#394,#395,#396));
#160=EDGE_LOOP('',(#397,#398,#399,#400));
#161=EDGE_LOOP('',(#401,#402,#403,#404));
#162=EDGE_LOOP('',(#405,#406,#407,#408));
#163=EDGE_LOOP('',(#409,#410,#411,#412));
#164=EDGE_LOOP('',(#413,#414,#415,#416));
#165=EDGE_LOOP('',(#417,#418,#419,#420));
#166=EDGE_LOOP('',(#421,#422,#423,#424,#425));
#167=EDGE_LOOP('',(#426,#427,#428,#429,#430));
#168=EDGE_LOOP('',(#431,#432,#433,#434,#435,#436));
#169=EDGE_LOOP('',(#437,#438,#439));
#170=EDGE_LOOP('',(#440,#441,#442));
#171=EDGE_LOOP('',(#443,#444,#445,#446));
#172=EDGE_LOOP('',(#447,#448,#449,#450,#451,#452));
#173=EDGE_LOOP('',(#453,#454,#455,#456));
#174=EDGE_LOOP('',(#457,#458,#459,#460,#461));
#175=EDGE_LOOP('',(#462,#463,#464,#465));
#176=EDGE_LOOP('',(#466,#467,#468,#469));
#177=EDGE_LOOP('',(#470,#471,#472,#473));
#178=EDGE_LOOP('',(#474,#475,#476,#477));
#179=EDGE_LOOP('',(#478,#479,#480,#481));
#180=EDGE_LOOP('',(#482,#483,#484,#485));
#181=EDGE_LOOP('',(#486,#487,#488));
#182=EDGE_LOOP('',(#489,#490,#491));
#183=EDGE_LOOP('',(#492,#493,#494,#495));
#184=EDGE_LOOP('',(#496,#497,#498,#499,#500));
#185=EDGE_LOOP('',(#501,#502,#503,#504,#505,#506));
#186=EDGE_LOOP('',(#507,#508,#509,#510,#511,#512));
#187=EDGE_LOOP('',(#513));
#188=EDGE_LOOP('',(#514));
#189=EDGE_LOOP('',(#515,#516,#517,#518));
#190=EDGE_LOOP('',(#519,#520,#521,#522));
#191=EDGE_LOOP('',(#523,#524,#525,#526,#527,#528));
#192=EDGE_LOOP('',(#529,#530,#531,#532));
#193=EDGE_LOOP('',(#533,#534,#535,#536));
#194=EDGE_LOOP('',(#537,#538,#539,#540));
#195=EDGE_LOOP('',(#541,#542,#543,#544));
#196=EDGE_LOOP('',(#545,#546,#547,#548));
#197=EDGE_LOOP('',(#549));
#198=EDGE_LOOP('',(#550));
#199=EDGE_LOOP('',(#551));
#200=EDGE_LOOP('',(#552));
#201=EDGE_LOOP('',(#553,#554,#555,#556,#557,#558));
#202=EDGE_LOOP('',(#559,#560,#561,#562,#563,#564));
#203=B_SPLINE_CURVE_WITH_KNOTS('',3,(#892,#893,#894,#895),.UNSPECIFIED.,
 .F.,.F.,(4,4),(2.67720078663439,3.10912280666493),.UNSPECIFIED.);
#204=B_SPLINE_CURVE_WITH_KNOTS('',3,(#898,#899,#900,#901),.UNSPECIFIED.,
 .F.,.F.,(4,4),(-3.10912280666493,-2.67720078663439),.UNSPECIFIED.);
#205=B_SPLINE_CURVE_WITH_KNOTS('',3,(#959,#960,#961,#962),.UNSPECIFIED.,
 .F.,.F.,(4,4),(-3.54104482602573,-3.10912280666492),.UNSPECIFIED.);
#206=B_SPLINE_CURVE_WITH_KNOTS('',3,(#963,#964,#965,#966),.UNSPECIFIED.,
 .F.,.F.,(4,4),(3.10912280666492,3.54104482602573),.UNSPECIFIED.);
#207=B_SPLINE_CURVE_WITH_KNOTS('',3,(#1004,#1005,#1006,#1007,#1008,#1009,
#1010,#1011,#1012,#1013),.UNSPECIFIED.,.F.,.F.,(4,2,2,2,4),(0.0960824483583658,
0.120916433403158,0.156898716002533,0.194224668346631,0.194725915567166),
 .UNSPECIFIED.);
#208=B_SPLINE_CURVE_WITH_KNOTS('',3,(#1014,#1015,#1016,#1017,#1018),
 .UNSPECIFIED.,.F.,.F.,(4,1,4),(0.136578807392488,0.78008922243134,1.71812406869038),
 .UNSPECIFIED.);
#209=B_SPLINE_CURVE_WITH_KNOTS('',3,(#1020,#1021,#1022,#1023,#1024),
 .UNSPECIFIED.,.F.,.F.,(4,1,4),(-1.71812406869038,-0.78008922243134,-0.104416441197747),
 .UNSPECIFIED.);
#210=B_SPLINE_CURVE_WITH_KNOTS('',3,(#1025,#1026,#1027,#1028,#1029,#1030,
#1031,#1032,#1033,#1034),.UNSPECIFIED.,.F.,.F.,(4,2,2,2,4),(0.,0.0229473273342844,
0.047218530336746,0.0669018005926504,0.088780201410764),.UNSPECIFIED.);
#211=B_SPLINE_CURVE_WITH_KNOTS('',3,(#1072,#1073,#1074,#1075,#1076,#1077,
#1078,#1079,#1080,#1081),.UNSPECIFIED.,.F.,.F.,(4,2,2,2,4),(0.,0.0346233483994722,
0.0668929648454517,0.0925594183365674,0.118046914521327),.UNSPECIFIED.);
#212=B_SPLINE_CURVE_WITH_KNOTS('',3,(#1082,#1083,#1084,#1085,#1086),
 .UNSPECIFIED.,.F.,.F.,(4,1,4),(0.104414774577939,0.780236271289726,1.7184671188396),
 .UNSPECIFIED.);
#213=B_SPLINE_CURVE_WITH_KNOTS('',3,(#1088,#1089,#1090,#1091,#1092),
 .UNSPECIFIED.,.F.,.F.,(4,1,4),(-1.7184671188396,-0.780236271289726,-0.136572047258859),
 .UNSPECIFIED.);
#214=B_SPLINE_CURVE_WITH_KNOTS('',3,(#1093,#1094,#1095,#1096,#1097,#1098,
#1099,#1100,#1101,#1102),.UNSPECIFIED.,.F.,.F.,(4,2,2,2,4),(-0.000506974028577359,
0.,0.0377523443390436,0.07414565212162,0.0992633450667537),
 .UNSPECIFIED.);
#215=B_SPLINE_CURVE_WITH_KNOTS('',3,(#1121,#1122,#1123,#1124,#1125,#1126,
#1127,#1128),.UNSPECIFIED.,.F.,.F.,(4,2,2,4),(0.55478676744516,0.590983142348018,
0.627179517250876,0.657883133074492),.UNSPECIFIED.);
#216=B_SPLINE_CURVE_WITH_KNOTS('',3,(#1131,#1132,#1133,#1134,#1135,#1136,
#1137,#1138),.UNSPECIFIED.,.F.,.F.,(4,2,2,4),(0.451690401815828,0.482394017639443,
0.518590392542301,0.55478676744516),.UNSPECIFIED.);
#217=B_SPLINE_CURVE_WITH_KNOTS('',3,(#1180,#1181,#1182,#1183,#1184,#1185,
#1186,#1187,#1188,#1189),.UNSPECIFIED.,.F.,.F.,(4,2,2,2,4),(-0.7254647061974,
-0.680356801904928,-0.627179517250876,-0.590983142348018,-0.55478676744516),
 .UNSPECIFIED.);
#218=B_SPLINE_CURVE_WITH_KNOTS('',3,(#1243,#1244,#1245,#1246,#1247,#1248,
#1249,#1250,#1251,#1252),.UNSPECIFIED.,.F.,.F.,(4,2,2,2,4),(-0.55478676744516,
-0.518590392542301,-0.482394017639443,-0.429216732985392,-0.384108831206206),
 .UNSPECIFIED.);
#219=CIRCLE('',#623,0.750000000000013);
#220=CIRCLE('',#624,0.750000000000002);
#221=CIRCLE('',#626,0.750000000000002);
#222=CIRCLE('',#628,0.750000000000002);
#223=CIRCLE('',#629,3.24608128585432);
#224=CIRCLE('',#630,3.99608128585432);
#225=CIRCLE('',#632,0.750000000000002);
#226=CIRCLE('',#634,0.750000000000002);
#227=CIRCLE('',#635,3.2460812858543);
#228=CIRCLE('',#636,3.9960812858543);
#229=CIRCLE('',#638,0.750000000000002);
#230=CIRCLE('',#639,0.750000000000002);
#231=CIRCLE('',#641,36.0671490982455);
#232=CIRCLE('',#642,3.);
#233=CIRCLE('',#643,3.);
#234=CIRCLE('',#644,3.);
#235=CIRCLE('',#645,3.);
#236=CIRCLE('',#646,3.);
#237=CIRCLE('',#647,3.);
#238=CIRCLE('',#649,32.5316151923127);
#239=CIRCLE('',#651,24.3496346769733);
#240=CIRCLE('',#653,1.);
#241=CIRCLE('',#655,24.99608128638);
#242=CIRCLE('',#656,23.99608128638);
#243=CIRCLE('',#659,2.9960812858543);
#244=CIRCLE('',#660,3.9960812858543);
#245=CIRCLE('',#664,2.99608128585432);
#246=CIRCLE('',#665,3.99608128585432);
#247=CIRCLE('',#667,1.);
#248=CIRCLE('',#670,23.99608128638);
#249=CIRCLE('',#674,1.35);
#250=CIRCLE('',#675,1.35);
#251=CIRCLE('',#682,1.35);
#252=CIRCLE('',#684,1.35);
#253=CIRCLE('',#686,3.);
#254=CIRCLE('',#688,3.);
#255=VERTEX_POINT('',#888);
#256=VERTEX_POINT('',#889);
#257=VERTEX_POINT('',#891);
#258=VERTEX_POINT('',#896);
#259=VERTEX_POINT('',#903);
#260=VERTEX_POINT('',#904);
#261=VERTEX_POINT('',#909);
#262=VERTEX_POINT('',#910);
#263=VERTEX_POINT('',#915);
#264=VERTEX_POINT('',#916);
#265=VERTEX_POINT('',#921);
#266=VERTEX_POINT('',#922);
#267=VERTEX_POINT('',#927);
#268=VERTEX_POINT('',#928);
#269=VERTEX_POINT('',#956);
#270=VERTEX_POINT('',#957);
#271=VERTEX_POINT('',#1002);
#272=VERTEX_POINT('',#1003);
#273=VERTEX_POINT('',#1019);
#274=VERTEX_POINT('',#1070);
#275=VERTEX_POINT('',#1071);
#276=VERTEX_POINT('',#1087);
#277=VERTEX_POINT('',#1105);
#278=VERTEX_POINT('',#1106);
#279=VERTEX_POINT('',#1108);
#280=VERTEX_POINT('',#1111);
#281=VERTEX_POINT('',#1112);
#282=VERTEX_POINT('',#1114);
#283=VERTEX_POINT('',#1120);
#284=VERTEX_POINT('',#1129);
#285=VERTEX_POINT('',#1179);
#286=VERTEX_POINT('',#1192);
#287=VERTEX_POINT('',#1194);
#288=VERTEX_POINT('',#1198);
#289=VERTEX_POINT('',#1200);
#290=VERTEX_POINT('',#1202);
#291=VERTEX_POINT('',#1206);
#292=VERTEX_POINT('',#1207);
#293=VERTEX_POINT('',#1213);
#294=VERTEX_POINT('',#1214);
#295=VERTEX_POINT('',#1219);
#296=VERTEX_POINT('',#1220);
#297=VERTEX_POINT('',#1225);
#298=VERTEX_POINT('',#1227);
#299=VERTEX_POINT('',#1229);
#300=VERTEX_POINT('',#1239);
#301=VERTEX_POINT('',#1257);
#302=VERTEX_POINT('',#1259);
#303=VERTEX_POINT('',#1311);
#304=VERTEX_POINT('',#1315);
#305=VERTEX_POINT('',#1319);
#306=VERTEX_POINT('',#1322);
#307=EDGE_CURVE('',#255,#256,#219,.T.);
#308=EDGE_CURVE('',#256,#257,#203,.T.);
#309=EDGE_CURVE('',#257,#258,#220,.T.);
#310=EDGE_CURVE('',#258,#255,#204,.T.);
#311=EDGE_CURVE('',#259,#260,#221,.T.);
#312=EDGE_CURVE('',#260,#258,#41,.T.);
#313=EDGE_CURVE('',#257,#259,#42,.T.);
#314=EDGE_CURVE('',#261,#262,#222,.T.);
#315=EDGE_CURVE('',#262,#260,#223,.T.);
#316=EDGE_CURVE('',#259,#261,#224,.T.);
#317=EDGE_CURVE('',#263,#264,#225,.T.);
#318=EDGE_CURVE('',#264,#262,#43,.T.);
#319=EDGE_CURVE('',#261,#263,#44,.T.);
#320=EDGE_CURVE('',#265,#266,#226,.T.);
#321=EDGE_CURVE('',#266,#264,#227,.T.);
#322=EDGE_CURVE('',#263,#265,#228,.T.);
#323=EDGE_CURVE('',#267,#268,#229,.T.);
#324=EDGE_CURVE('',#268,#266,#45,.T.);
#325=EDGE_CURVE('',#265,#267,#46,.T.);
#326=EDGE_CURVE('',#269,#270,#230,.T.);
#327=EDGE_CURVE('',#270,#268,#205,.T.);
#328=EDGE_CURVE('',#267,#269,#206,.T.);
#329=EDGE_CURVE('',#271,#272,#207,.T.);
#330=EDGE_CURVE('',#272,#256,#208,.T.);
#331=EDGE_CURVE('',#255,#273,#209,.T.);
#332=EDGE_CURVE('',#273,#271,#210,.T.);
#333=EDGE_CURVE('',#274,#275,#211,.T.);
#334=EDGE_CURVE('',#275,#270,#212,.T.);
#335=EDGE_CURVE('',#269,#276,#213,.T.);
#336=EDGE_CURVE('',#276,#274,#214,.T.);
#337=EDGE_CURVE('',#258,#268,#231,.T.);
#338=EDGE_CURVE('',#277,#278,#232,.T.);
#339=EDGE_CURVE('',#278,#279,#233,.T.);
#340=EDGE_CURVE('',#279,#277,#234,.T.);
#341=EDGE_CURVE('',#280,#281,#235,.T.);
#342=EDGE_CURVE('',#281,#282,#236,.T.);
#343=EDGE_CURVE('',#282,#280,#237,.T.);
#344=EDGE_CURVE('',#270,#255,#238,.T.);
#345=EDGE_CURVE('',#283,#275,#215,.T.);
#346=EDGE_CURVE('',#284,#283,#239,.T.);
#347=EDGE_CURVE('',#273,#284,#216,.T.);
#348=EDGE_CURVE('',#274,#285,#217,.T.);
#349=EDGE_CURVE('',#285,#283,#47,.T.);
#350=EDGE_CURVE('',#276,#286,#48,.T.);
#351=EDGE_CURVE('',#287,#286,#240,.T.);
#352=EDGE_CURVE('',#287,#285,#49,.T.);
#353=EDGE_CURVE('',#287,#288,#50,.T.);
#354=EDGE_CURVE('',#288,#289,#241,.T.);
#355=EDGE_CURVE('',#289,#290,#51,.T.);
#356=EDGE_CURVE('',#290,#287,#242,.T.);
#357=EDGE_CURVE('',#291,#292,#52,.T.);
#358=EDGE_CURVE('',#292,#288,#53,.T.);
#359=EDGE_CURVE('',#288,#286,#54,.T.);
#360=EDGE_CURVE('',#286,#291,#55,.T.);
#361=EDGE_CURVE('',#293,#294,#56,.T.);
#362=EDGE_CURVE('',#294,#292,#243,.T.);
#363=EDGE_CURVE('',#291,#293,#244,.T.);
#364=EDGE_CURVE('',#295,#296,#57,.T.);
#365=EDGE_CURVE('',#296,#294,#58,.T.);
#366=EDGE_CURVE('',#293,#295,#59,.T.);
#367=EDGE_CURVE('',#297,#289,#60,.T.);
#368=EDGE_CURVE('',#289,#298,#61,.T.);
#369=EDGE_CURVE('',#298,#299,#62,.T.);
#370=EDGE_CURVE('',#299,#297,#63,.T.);
#371=EDGE_CURVE('',#298,#296,#245,.T.);
#372=EDGE_CURVE('',#295,#299,#246,.T.);
#373=EDGE_CURVE('',#297,#290,#247,.T.);
#374=EDGE_CURVE('',#300,#290,#64,.T.);
#375=EDGE_CURVE('',#285,#300,#248,.T.);
#376=EDGE_CURVE('',#300,#271,#218,.T.);
#377=EDGE_CURVE('',#297,#272,#65,.T.);
#378=EDGE_CURVE('',#299,#259,#66,.T.);
#379=EDGE_CURVE('',#301,#301,#249,.T.);
#380=EDGE_CURVE('',#302,#302,#250,.T.);
#381=EDGE_CURVE('',#300,#284,#67,.T.);
#382=EDGE_CURVE('',#291,#265,#68,.T.);
#383=EDGE_CURVE('',#293,#263,#69,.T.);
#384=EDGE_CURVE('',#295,#261,#70,.T.);
#385=EDGE_CURVE('',#303,#303,#251,.T.);
#386=EDGE_CURVE('',#303,#301,#71,.T.);
#387=EDGE_CURVE('',#304,#304,#252,.T.);
#388=EDGE_CURVE('',#304,#302,#72,.T.);
#389=EDGE_CURVE('',#305,#305,#253,.T.);
#390=EDGE_CURVE('',#306,#306,#254,.T.);
#391=EDGE_CURVE('',#281,#306,#73,.T.);
#392=EDGE_CURVE('',#278,#305,#74,.T.);
#393=ORIENTED_EDGE('',*,*,#307,.T.);
#394=ORIENTED_EDGE('',*,*,#308,.T.);
#395=ORIENTED_EDGE('',*,*,#309,.T.);
#396=ORIENTED_EDGE('',*,*,#310,.T.);
#397=ORIENTED_EDGE('',*,*,#311,.T.);
#398=ORIENTED_EDGE('',*,*,#312,.T.);
#399=ORIENTED_EDGE('',*,*,#309,.F.);
#400=ORIENTED_EDGE('',*,*,#313,.T.);
#401=ORIENTED_EDGE('',*,*,#314,.T.);
#402=ORIENTED_EDGE('',*,*,#315,.T.);
#403=ORIENTED_EDGE('',*,*,#311,.F.);
#404=ORIENTED_EDGE('',*,*,#316,.T.);
#405=ORIENTED_EDGE('',*,*,#317,.T.);
#406=ORIENTED_EDGE('',*,*,#318,.T.);
#407=ORIENTED_EDGE('',*,*,#314,.F.);
#408=ORIENTED_EDGE('',*,*,#319,.T.);
#409=ORIENTED_EDGE('',*,*,#320,.T.);
#410=ORIENTED_EDGE('',*,*,#321,.T.);
#411=ORIENTED_EDGE('',*,*,#317,.F.);
#412=ORIENTED_EDGE('',*,*,#322,.T.);
#413=ORIENTED_EDGE('',*,*,#323,.T.);
#414=ORIENTED_EDGE('',*,*,#324,.T.);
#415=ORIENTED_EDGE('',*,*,#320,.F.);
#416=ORIENTED_EDGE('',*,*,#325,.T.);
#417=ORIENTED_EDGE('',*,*,#326,.T.);
#418=ORIENTED_EDGE('',*,*,#327,.T.);
#419=ORIENTED_EDGE('',*,*,#323,.F.);
#420=ORIENTED_EDGE('',*,*,#328,.T.);
#421=ORIENTED_EDGE('',*,*,#329,.T.);
#422=ORIENTED_EDGE('',*,*,#330,.T.);
#423=ORIENTED_EDGE('',*,*,#307,.F.);
#424=ORIENTED_EDGE('',*,*,#331,.T.);
#425=ORIENTED_EDGE('',*,*,#332,.T.);
#426=ORIENTED_EDGE('',*,*,#333,.T.);
#427=ORIENTED_EDGE('',*,*,#334,.T.);
#428=ORIENTED_EDGE('',*,*,#326,.F.);
#429=ORIENTED_EDGE('',*,*,#335,.T.);
#430=ORIENTED_EDGE('',*,*,#336,.T.);
#431=ORIENTED_EDGE('',*,*,#312,.F.);
#432=ORIENTED_EDGE('',*,*,#315,.F.);
#433=ORIENTED_EDGE('',*,*,#318,.F.);
#434=ORIENTED_EDGE('',*,*,#321,.F.);
#435=ORIENTED_EDGE('',*,*,#324,.F.);
#436=ORIENTED_EDGE('',*,*,#337,.F.);
#437=ORIENTED_EDGE('',*,*,#338,.T.);
#438=ORIENTED_EDGE('',*,*,#339,.T.);
#439=ORIENTED_EDGE('',*,*,#340,.T.);
#440=ORIENTED_EDGE('',*,*,#341,.T.);
#441=ORIENTED_EDGE('',*,*,#342,.T.);
#442=ORIENTED_EDGE('',*,*,#343,.T.);
#443=ORIENTED_EDGE('',*,*,#310,.F.);
#444=ORIENTED_EDGE('',*,*,#337,.T.);
#445=ORIENTED_EDGE('',*,*,#327,.F.);
#446=ORIENTED_EDGE('',*,*,#344,.T.);
#447=ORIENTED_EDGE('',*,*,#331,.F.);
#448=ORIENTED_EDGE('',*,*,#344,.F.);
#449=ORIENTED_EDGE('',*,*,#334,.F.);
#450=ORIENTED_EDGE('',*,*,#345,.F.);
#451=ORIENTED_EDGE('',*,*,#346,.F.);
#452=ORIENTED_EDGE('',*,*,#347,.F.);
#453=ORIENTED_EDGE('',*,*,#333,.F.);
#454=ORIENTED_EDGE('',*,*,#348,.T.);
#455=ORIENTED_EDGE('',*,*,#349,.T.);
#456=ORIENTED_EDGE('',*,*,#345,.T.);
#457=ORIENTED_EDGE('',*,*,#336,.F.);
#458=ORIENTED_EDGE('',*,*,#350,.T.);
#459=ORIENTED_EDGE('',*,*,#351,.F.);
#460=ORIENTED_EDGE('',*,*,#352,.T.);
#461=ORIENTED_EDGE('',*,*,#348,.F.);
#462=ORIENTED_EDGE('',*,*,#353,.T.);
#463=ORIENTED_EDGE('',*,*,#354,.T.);
#464=ORIENTED_EDGE('',*,*,#355,.T.);
#465=ORIENTED_EDGE('',*,*,#356,.T.);
#466=ORIENTED_EDGE('',*,*,#357,.T.);
#467=ORIENTED_EDGE('',*,*,#358,.T.);
#468=ORIENTED_EDGE('',*,*,#359,.T.);
#469=ORIENTED_EDGE('',*,*,#360,.T.);
#470=ORIENTED_EDGE('',*,*,#361,.T.);
#471=ORIENTED_EDGE('',*,*,#362,.T.);
#472=ORIENTED_EDGE('',*,*,#357,.F.);
#473=ORIENTED_EDGE('',*,*,#363,.T.);
#474=ORIENTED_EDGE('',*,*,#364,.T.);
#475=ORIENTED_EDGE('',*,*,#365,.T.);
#476=ORIENTED_EDGE('',*,*,#361,.F.);
#477=ORIENTED_EDGE('',*,*,#366,.T.);
#478=ORIENTED_EDGE('',*,*,#367,.T.);
#479=ORIENTED_EDGE('',*,*,#368,.T.);
#480=ORIENTED_EDGE('',*,*,#369,.T.);
#481=ORIENTED_EDGE('',*,*,#370,.T.);
#482=ORIENTED_EDGE('',*,*,#369,.F.);
#483=ORIENTED_EDGE('',*,*,#371,.T.);
#484=ORIENTED_EDGE('',*,*,#364,.F.);
#485=ORIENTED_EDGE('',*,*,#372,.T.);
#486=ORIENTED_EDGE('',*,*,#367,.F.);
#487=ORIENTED_EDGE('',*,*,#373,.T.);
#488=ORIENTED_EDGE('',*,*,#355,.F.);
#489=ORIENTED_EDGE('',*,*,#353,.F.);
#490=ORIENTED_EDGE('',*,*,#351,.T.);
#491=ORIENTED_EDGE('',*,*,#359,.F.);
#492=ORIENTED_EDGE('',*,*,#356,.F.);
#493=ORIENTED_EDGE('',*,*,#374,.F.);
#494=ORIENTED_EDGE('',*,*,#375,.F.);
#495=ORIENTED_EDGE('',*,*,#352,.F.);
#496=ORIENTED_EDGE('',*,*,#329,.F.);
#497=ORIENTED_EDGE('',*,*,#376,.F.);
#498=ORIENTED_EDGE('',*,*,#374,.T.);
#499=ORIENTED_EDGE('',*,*,#373,.F.);
#500=ORIENTED_EDGE('',*,*,#377,.T.);
#501=ORIENTED_EDGE('',*,*,#330,.F.);
#502=ORIENTED_EDGE('',*,*,#377,.F.);
#503=ORIENTED_EDGE('',*,*,#370,.F.);
#504=ORIENTED_EDGE('',*,*,#378,.T.);
#505=ORIENTED_EDGE('',*,*,#313,.F.);
#506=ORIENTED_EDGE('',*,*,#308,.F.);
#507=ORIENTED_EDGE('',*,*,#354,.F.);
#508=ORIENTED_EDGE('',*,*,#358,.F.);
#509=ORIENTED_EDGE('',*,*,#362,.F.);
#510=ORIENTED_EDGE('',*,*,#365,.F.);
#511=ORIENTED_EDGE('',*,*,#371,.F.);
#512=ORIENTED_EDGE('',*,*,#368,.F.);
#513=ORIENTED_EDGE('',*,*,#379,.T.);
#514=ORIENTED_EDGE('',*,*,#380,.T.);
#515=ORIENTED_EDGE('',*,*,#381,.T.);
#516=ORIENTED_EDGE('',*,*,#346,.T.);
#517=ORIENTED_EDGE('',*,*,#349,.F.);
#518=ORIENTED_EDGE('',*,*,#375,.T.);
#519=ORIENTED_EDGE('',*,*,#332,.F.);
#520=ORIENTED_EDGE('',*,*,#347,.T.);
#521=ORIENTED_EDGE('',*,*,#381,.F.);
#522=ORIENTED_EDGE('',*,*,#376,.T.);
#523=ORIENTED_EDGE('',*,*,#325,.F.);
#524=ORIENTED_EDGE('',*,*,#382,.F.);
#525=ORIENTED_EDGE('',*,*,#360,.F.);
#526=ORIENTED_EDGE('',*,*,#350,.F.);
#527=ORIENTED_EDGE('',*,*,#335,.F.);
#528=ORIENTED_EDGE('',*,*,#328,.F.);
#529=ORIENTED_EDGE('',*,*,#322,.F.);
#530=ORIENTED_EDGE('',*,*,#383,.F.);
#531=ORIENTED_EDGE('',*,*,#363,.F.);
#532=ORIENTED_EDGE('',*,*,#382,.T.);
#533=ORIENTED_EDGE('',*,*,#319,.F.);
#534=ORIENTED_EDGE('',*,*,#384,.F.);
#535=ORIENTED_EDGE('',*,*,#366,.F.);
#536=ORIENTED_EDGE('',*,*,#383,.T.);
#537=ORIENTED_EDGE('',*,*,#316,.F.);
#538=ORIENTED_EDGE('',*,*,#378,.F.);
#539=ORIENTED_EDGE('',*,*,#372,.F.);
#540=ORIENTED_EDGE('',*,*,#384,.T.);
#541=ORIENTED_EDGE('',*,*,#385,.F.);
#542=ORIENTED_EDGE('',*,*,#386,.T.);
#543=ORIENTED_EDGE('',*,*,#379,.F.);
#544=ORIENTED_EDGE('',*,*,#386,.F.);
#545=ORIENTED_EDGE('',*,*,#387,.F.);
#546=ORIENTED_EDGE('',*,*,#388,.T.);
#547=ORIENTED_EDGE('',*,*,#380,.F.);
#548=ORIENTED_EDGE('',*,*,#388,.F.);
#549=ORIENTED_EDGE('',*,*,#389,.F.);
#550=ORIENTED_EDGE('',*,*,#385,.T.);
#551=ORIENTED_EDGE('',*,*,#390,.F.);
#552=ORIENTED_EDGE('',*,*,#387,.T.);
#553=ORIENTED_EDGE('',*,*,#341,.F.);
#554=ORIENTED_EDGE('',*,*,#343,.F.);
#555=ORIENTED_EDGE('',*,*,#342,.F.);
#556=ORIENTED_EDGE('',*,*,#391,.T.);
#557=ORIENTED_EDGE('',*,*,#390,.T.);
#558=ORIENTED_EDGE('',*,*,#391,.F.);
#559=ORIENTED_EDGE('',*,*,#338,.F.);
#560=ORIENTED_EDGE('',*,*,#340,.F.);
#561=ORIENTED_EDGE('',*,*,#339,.F.);
#562=ORIENTED_EDGE('',*,*,#392,.T.);
#563=ORIENTED_EDGE('',*,*,#389,.T.);
#564=ORIENTED_EDGE('',*,*,#392,.F.);
#565=B_SPLINE_SURFACE_WITH_KNOTS('',3,3,((#864,#865,#866,#867),(#868,#869,
#870,#871),(#872,#873,#874,#875),(#876,#877,#878,#879),(#880,#881,#882,
#883),(#884,#885,#886,#887)),.UNSPECIFIED.,.F.,.F.,.F.,(4,1,1,4),(4,4),
(0.,0.285714285714286,0.571428571428571,1.),(2.67720078663439,3.10912280666493),
 .UNSPECIFIED.);
#566=B_SPLINE_SURFACE_WITH_KNOTS('',3,3,((#932,#933,#934,#935),(#936,#937,
#938,#939),(#940,#941,#942,#943),(#944,#945,#946,#947),(#948,#949,#950,
#951),(#952,#953,#954,#955)),.UNSPECIFIED.,.F.,.F.,.F.,(4,1,1,4),(4,4),
(0.,0.285714285714286,0.571428571428571,1.),(3.10912280666492,3.54104482602573),
 .UNSPECIFIED.);
#567=B_SPLINE_SURFACE_WITH_KNOTS('',3,3,((#967,#968,#969,#970,#971),(#972,
#973,#974,#975,#976),(#977,#978,#979,#980,#981),(#982,#983,#984,#985,#986),
(#987,#988,#989,#990,#991),(#992,#993,#994,#995,#996),(#997,#998,#999,#1000,
#1001)),.UNSPECIFIED.,.F.,.F.,.F.,(4,1,1,1,4),(4,1,4),(0.,0.285714285714286,
0.571428571428571,0.785714285714286,1.),(0.076563087737059,0.78008922243134,
1.71812406869038),.UNSPECIFIED.);
#568=B_SPLINE_SURFACE_WITH_KNOTS('',3,3,((#1035,#1036,#1037,#1038,#1039),
(#1040,#1041,#1042,#1043,#1044),(#1045,#1046,#1047,#1048,#1049),(#1050,
#1051,#1052,#1053,#1054),(#1055,#1056,#1057,#1058,#1059),(#1060,#1061,#1062,
#1063,#1064),(#1065,#1066,#1067,#1068,#1069)),.UNSPECIFIED.,.F.,.F.,.F.,
(4,1,1,1,4),(4,1,4),(0.,0.285714285714286,0.571428571428571,0.785714285714286,
1.),(0.0765631356273234,0.780236271289726,1.7184671188396),
 .UNSPECIFIED.);
#569=B_SPLINE_SURFACE_WITH_KNOTS('',3,3,((#1139,#1140,#1141,#1142,#1143,
#1144,#1145,#1146,#1147,#1148),(#1149,#1150,#1151,#1152,#1153,#1154,#1155,
#1156,#1157,#1158),(#1159,#1160,#1161,#1162,#1163,#1164,#1165,#1166,#1167,
#1168),(#1169,#1170,#1171,#1172,#1173,#1174,#1175,#1176,#1177,#1178)),
 .UNSPECIFIED.,.F.,.F.,.F.,(4,4),(4,2,2,2,4),(0.,1.),(0.55478676744516,
0.590983142348018,0.627179517250876,0.680356801904928,0.726042991534865),
 .UNSPECIFIED.);
#570=B_SPLINE_SURFACE_WITH_KNOTS('',3,3,((#1263,#1264,#1265,#1266,#1267,
#1268,#1269,#1270,#1271,#1272),(#1273,#1274,#1275,#1276,#1277,#1278,#1279,
#1280,#1281,#1282),(#1283,#1284,#1285,#1286,#1287,#1288,#1289,#1290,#1291,
#1292),(#1293,#1294,#1295,#1296,#1297,#1298,#1299,#1300,#1301,#1302)),
 .UNSPECIFIED.,.F.,.F.,.F.,(4,4),(4,2,2,2,4),(0.,1.),(0.383696080416512,
0.429216732985392,0.482394017639443,0.518590392542301,0.55478676744516),
 .UNSPECIFIED.);
#571=ADVANCED_FACE('',(#121),#565,.F.);
#572=ADVANCED_FACE('',(#122),#109,.T.);
#573=ADVANCED_FACE('',(#123),#38,.T.);
#574=ADVANCED_FACE('',(#124),#110,.T.);
#575=ADVANCED_FACE('',(#125),#39,.T.);
#576=ADVANCED_FACE('',(#126),#111,.T.);
#577=ADVANCED_FACE('',(#127),#566,.F.);
#578=ADVANCED_FACE('',(#128),#567,.F.);
#579=ADVANCED_FACE('',(#129),#568,.F.);
#580=ADVANCED_FACE('',(#130,#22,#23),#28,.T.);
#581=ADVANCED_FACE('',(#131),#40,.T.);
#582=ADVANCED_FACE('',(#132),#15,.F.);
#583=ADVANCED_FACE('',(#133),#569,.T.);
#584=ADVANCED_FACE('',(#134),#112,.T.);
#585=ADVANCED_FACE('',(#135),#16,.F.);
#586=ADVANCED_FACE('',(#136),#29,.T.);
#587=ADVANCED_FACE('',(#137),#17,.T.);
#588=ADVANCED_FACE('',(#138),#30,.T.);
#589=ADVANCED_FACE('',(#139),#31,.T.);
#590=ADVANCED_FACE('',(#140),#18,.T.);
#591=ADVANCED_FACE('',(#141),#19,.T.);
#592=ADVANCED_FACE('',(#142),#20,.T.);
#593=ADVANCED_FACE('',(#143),#113,.F.);
#594=ADVANCED_FACE('',(#144),#114,.T.);
#595=ADVANCED_FACE('',(#145),#32,.T.);
#596=ADVANCED_FACE('',(#146,#24,#25),#33,.F.);
#597=ADVANCED_FACE('',(#147),#21,.F.);
#598=ADVANCED_FACE('',(#148),#570,.T.);
#599=ADVANCED_FACE('',(#149),#34,.T.);
#600=ADVANCED_FACE('',(#150),#115,.T.);
#601=ADVANCED_FACE('',(#151),#35,.T.);
#602=ADVANCED_FACE('',(#152),#116,.T.);
#603=ADVANCED_FACE('',(#153),#117,.F.);
#604=ADVANCED_FACE('',(#154),#118,.F.);
#605=ADVANCED_FACE('',(#155,#26),#36,.T.);
#606=ADVANCED_FACE('',(#156,#27),#37,.T.);
#607=ADVANCED_FACE('',(#157),#119,.F.);
#608=ADVANCED_FACE('',(#158),#120,.F.);
#609=CLOSED_SHELL('',(#571,#572,#573,#574,#575,#576,#577,#578,#579,#580,
#581,#582,#583,#584,#585,#586,#587,#588,#589,#590,#591,#592,#593,#594,#595,
#596,#597,#598,#599,#600,#601,#602,#603,#604,#605,#606,#607,#608));
#610=DERIVED_UNIT_ELEMENT(#612,1.);
#611=DERIVED_UNIT_ELEMENT(#1333,-3.);
#612=(
MASS_UNIT()
NAMED_UNIT(*)
SI_UNIT(.KILO.,.GRAM.)
);
#613=DERIVED_UNIT((#610,#611));
#614=MEASURE_REPRESENTATION_ITEM('density measure',
POSITIVE_RATIO_MEASURE(7850.),#613);
#615=PROPERTY_DEFINITION_REPRESENTATION(#620,#617);
#616=PROPERTY_DEFINITION_REPRESENTATION(#621,#618);
#617=REPRESENTATION('material name',(#619),#1330);
#618=REPRESENTATION('density',(#614),#1330);
#619=DESCRIPTIVE_REPRESENTATION_ITEM('Steel','Steel');
#620=PROPERTY_DEFINITION('material property','material name',#1340);
#621=PROPERTY_DEFINITION('material property','density of part',#1340);
#622=AXIS2_PLACEMENT_3D('',#863,#691,#692);
#623=AXIS2_PLACEMENT_3D('',#890,#693,#694);
#624=AXIS2_PLACEMENT_3D('',#897,#695,#696);
#625=AXIS2_PLACEMENT_3D('',#902,#697,#698);
#626=AXIS2_PLACEMENT_3D('',#905,#699,#700);
#627=AXIS2_PLACEMENT_3D('',#908,#703,#704);
#628=AXIS2_PLACEMENT_3D('',#911,#705,#706);
#629=AXIS2_PLACEMENT_3D('',#912,#707,#708);
#630=AXIS2_PLACEMENT_3D('',#913,#709,#710);
#631=AXIS2_PLACEMENT_3D('',#914,#711,#712);
#632=AXIS2_PLACEMENT_3D('',#917,#713,#714);
#633=AXIS2_PLACEMENT_3D('',#920,#717,#718);
#634=AXIS2_PLACEMENT_3D('',#923,#719,#720);
#635=AXIS2_PLACEMENT_3D('',#924,#721,#722);
#636=AXIS2_PLACEMENT_3D('',#925,#723,#724);
#637=AXIS2_PLACEMENT_3D('',#926,#725,#726);
#638=AXIS2_PLACEMENT_3D('',#929,#727,#728);
#639=AXIS2_PLACEMENT_3D('',#958,#731,#732);
#640=AXIS2_PLACEMENT_3D('',#1103,#733,#734);
#641=AXIS2_PLACEMENT_3D('',#1104,#735,#736);
#642=AXIS2_PLACEMENT_3D('',#1107,#737,#738);
#643=AXIS2_PLACEMENT_3D('',#1109,#739,#740);
#644=AXIS2_PLACEMENT_3D('',#1110,#741,#742);
#645=AXIS2_PLACEMENT_3D('',#1113,#743,#744);
#646=AXIS2_PLACEMENT_3D('',#1115,#745,#746);
#647=AXIS2_PLACEMENT_3D('',#1116,#747,#748);
#648=AXIS2_PLACEMENT_3D('',#1117,#749,#750);
#649=AXIS2_PLACEMENT_3D('',#1118,#751,#752);
#650=AXIS2_PLACEMENT_3D('',#1119,#753,#754);
#651=AXIS2_PLACEMENT_3D('',#1130,#755,#756);
#652=AXIS2_PLACEMENT_3D('',#1191,#758,#759);
#653=AXIS2_PLACEMENT_3D('',#1195,#761,#762);
#654=AXIS2_PLACEMENT_3D('',#1197,#764,#765);
#655=AXIS2_PLACEMENT_3D('',#1201,#767,#768);
#656=AXIS2_PLACEMENT_3D('',#1204,#770,#771);
#657=AXIS2_PLACEMENT_3D('',#1205,#772,#773);
#658=AXIS2_PLACEMENT_3D('',#1212,#778,#779);
#659=AXIS2_PLACEMENT_3D('',#1216,#781,#782);
#660=AXIS2_PLACEMENT_3D('',#1217,#783,#784);
#661=AXIS2_PLACEMENT_3D('',#1218,#785,#786);
#662=AXIS2_PLACEMENT_3D('',#1224,#790,#791);
#663=AXIS2_PLACEMENT_3D('',#1232,#796,#797);
#664=AXIS2_PLACEMENT_3D('',#1233,#798,#799);
#665=AXIS2_PLACEMENT_3D('',#1234,#800,#801);
#666=AXIS2_PLACEMENT_3D('',#1235,#802,#803);
#667=AXIS2_PLACEMENT_3D('',#1236,#804,#805);
#668=AXIS2_PLACEMENT_3D('',#1237,#806,#807);
#669=AXIS2_PLACEMENT_3D('',#1238,#808,#809);
#670=AXIS2_PLACEMENT_3D('',#1241,#811,#812);
#671=AXIS2_PLACEMENT_3D('',#1242,#813,#814);
#672=AXIS2_PLACEMENT_3D('',#1254,#816,#817);
#673=AXIS2_PLACEMENT_3D('',#1256,#819,#820);
#674=AXIS2_PLACEMENT_3D('',#1258,#821,#822);
#675=AXIS2_PLACEMENT_3D('',#1260,#823,#824);
#676=AXIS2_PLACEMENT_3D('',#1261,#825,#826);
#677=AXIS2_PLACEMENT_3D('',#1303,#828,#829);
#678=AXIS2_PLACEMENT_3D('',#1305,#831,#832);
#679=AXIS2_PLACEMENT_3D('',#1307,#834,#835);
#680=AXIS2_PLACEMENT_3D('',#1309,#837,#838);
#681=AXIS2_PLACEMENT_3D('',#1310,#839,#840);
#682=AXIS2_PLACEMENT_3D('',#1312,#841,#842);
#683=AXIS2_PLACEMENT_3D('',#1314,#844,#845);
#684=AXIS2_PLACEMENT_3D('',#1316,#846,#847);
#685=AXIS2_PLACEMENT_3D('',#1318,#849,#850);
#686=AXIS2_PLACEMENT_3D('',#1320,#851,#852);
#687=AXIS2_PLACEMENT_3D('',#1321,#853,#854);
#688=AXIS2_PLACEMENT_3D('',#1323,#855,#856);
#689=AXIS2_PLACEMENT_3D('',#1324,#857,#858);
#690=AXIS2_PLACEMENT_3D('',#1326,#860,#861);
#691=DIRECTION('axis',(0.,0.,1.));
#692=DIRECTION('refdir',(1.,0.,0.));
#693=DIRECTION('center_axis',(-0.814965690077331,0.,0.579509209587543));
#694=DIRECTION('ref_axis',(0.502812445785942,-0.497171644769443,0.707106781186552));
#695=DIRECTION('center_axis',(1.,0.,0.));
#696=DIRECTION('ref_axis',(0.,1.,0.));
#697=DIRECTION('center_axis',(-1.,7.40148683083438E-17,0.));
#698=DIRECTION('ref_axis',(0.,0.707106781186548,0.707106781186548));
#699=DIRECTION('center_axis',(1.,0.,0.));
#700=DIRECTION('ref_axis',(0.,1.,0.));
#701=DIRECTION('',(1.,-7.40148683083438E-17,0.));
#702=DIRECTION('',(-1.,7.40148683083438E-17,0.));
#703=DIRECTION('center_axis',(0.,0.,1.));
#704=DIRECTION('ref_axis',(1.,0.,0.));
#705=DIRECTION('center_axis',(0.,1.,0.));
#706=DIRECTION('ref_axis',(-1.,0.,0.));
#707=DIRECTION('center_axis',(0.,0.,-1.));
#708=DIRECTION('ref_axis',(-0.707106781186547,0.707106781186548,0.));
#709=DIRECTION('center_axis',(0.,0.,1.));
#710=DIRECTION('ref_axis',(-0.707106781186547,0.707106781186548,0.));
#711=DIRECTION('center_axis',(-2.22044604925031E-16,-1.,0.));
#712=DIRECTION('ref_axis',(-0.707106781186543,0.,0.707106781186552));
#713=DIRECTION('center_axis',(0.,1.,0.));
#714=DIRECTION('ref_axis',(-1.,0.,0.));
#715=DIRECTION('',(2.22044604925031E-16,1.,0.));
#716=DIRECTION('',(-2.22044604925031E-16,-1.,0.));
#717=DIRECTION('center_axis',(0.,0.,1.));
#718=DIRECTION('ref_axis',(1.,0.,0.));
#719=DIRECTION('center_axis',(-1.,1.1842378929335E-14,0.));
#720=DIRECTION('ref_axis',(-1.1842378929335E-14,-1.,0.));
#721=DIRECTION('center_axis',(0.,0.,-1.));
#722=DIRECTION('ref_axis',(-0.707106781186548,-0.707106781186547,0.));
#723=DIRECTION('center_axis',(0.,0.,1.));
#724=DIRECTION('ref_axis',(-0.707106781186548,-0.707106781186547,0.));
#725=DIRECTION('center_axis',(1.,7.40148683083437E-17,0.));
#726=DIRECTION('ref_axis',(0.,-0.707106781186548,0.707106781186548));
#727=DIRECTION('center_axis',(-1.,0.,0.));
#728=DIRECTION('ref_axis',(0.,-1.,0.));
#729=DIRECTION('',(-1.,-7.40148683083437E-17,0.));
#730=DIRECTION('',(1.,7.40148683083437E-17,0.));
#731=DIRECTION('center_axis',(-0.814965690824974,-6.54125817270926E-15,
0.579509208536131));
#732=DIRECTION('ref_axis',(5.92118946466749E-15,-1.,-2.96059473233374E-15));
#733=DIRECTION('center_axis',(0.,0.,1.));
#734=DIRECTION('ref_axis',(-1.,0.,0.));
#735=DIRECTION('center_axis',(0.,0.,1.));
#736=DIRECTION('ref_axis',(-1.,3.88578058618805E-16,0.));
#737=DIRECTION('center_axis',(0.,0.,-1.));
#738=DIRECTION('ref_axis',(-1.,0.,0.));
#739=DIRECTION('center_axis',(0.,0.,-1.));
#740=DIRECTION('ref_axis',(-1.,0.,0.));
#741=DIRECTION('center_axis',(0.,0.,-1.));
#742=DIRECTION('ref_axis',(-1.,0.,0.));
#743=DIRECTION('center_axis',(0.,0.,-1.));
#744=DIRECTION('ref_axis',(-1.,0.,0.));
#745=DIRECTION('center_axis',(0.,0.,-1.));
#746=DIRECTION('ref_axis',(-1.,0.,0.));
#747=DIRECTION('center_axis',(0.,0.,-1.));
#748=DIRECTION('ref_axis',(-1.,0.,0.));
#749=DIRECTION('center_axis',(0.,0.,1.));
#750=DIRECTION('ref_axis',(-1.,5.80328122294664E-11,0.));
#751=DIRECTION('center_axis',(0.,0.,-1.));
#752=DIRECTION('ref_axis',(-1.,4.77565974191801E-16,0.));
#753=DIRECTION('center_axis',(0.,0.,1.));
#754=DIRECTION('ref_axis',(-1.,0.,0.));
#755=DIRECTION('center_axis',(0.,0.,1.));
#756=DIRECTION('ref_axis',(-1.,6.12323399573676E-17,0.));
#757=DIRECTION('',(-0.149991928904066,-0.352063958209816,0.923879532511287));
#758=DIRECTION('center_axis',(0.,0.,-1.));
#759=DIRECTION('ref_axis',(0.979792696984795,-0.200015676723757,0.));
#760=DIRECTION('',(0.,0.,-1.));
#761=DIRECTION('center_axis',(0.,0.,-1.));
#762=DIRECTION('ref_axis',(0.979792696984794,-0.200015676723759,0.));
#763=DIRECTION('',(0.,0.,1.));
#764=DIRECTION('center_axis',(0.,0.,-1.));
#765=DIRECTION('ref_axis',(-1.,0.,0.));
#766=DIRECTION('',(-0.277148946312702,-0.650529370249921,-0.707106781186548));
#767=DIRECTION('center_axis',(0.,0.,-1.));
#768=DIRECTION('ref_axis',(-1.,0.,0.));
#769=DIRECTION('',(0.277148946312701,-0.650529370249921,0.707106781186548));
#770=DIRECTION('center_axis',(0.,0.,1.));
#771=DIRECTION('ref_axis',(-1.,0.,0.));
#772=DIRECTION('center_axis',(5.23364152542615E-17,-0.707106780711,-0.707106781662096));
#773=DIRECTION('ref_axis',(-1.,0.,-7.40148682087898E-17));
#774=DIRECTION('',(0.,0.707106781662096,-0.707106780710999));
#775=DIRECTION('',(1.,7.40148683083437E-17,0.));
#776=DIRECTION('',(7.85046228813924E-16,-0.707106781662094,0.707106780711001));
#777=DIRECTION('',(-1.,-7.40148683083437E-17,0.));
#778=DIRECTION('center_axis',(0.,0.,1.));
#779=DIRECTION('ref_axis',(-1.,-1.66696762934512E-15,0.));
#780=DIRECTION('',(0.707106781186547,1.57009245868378E-15,-0.707106781186548));
#781=DIRECTION('center_axis',(0.,0.,1.));
#782=DIRECTION('ref_axis',(-1.,-1.66696762934512E-15,0.));
#783=DIRECTION('center_axis',(0.,0.,-1.));
#784=DIRECTION('ref_axis',(-1.,-1.66696762934512E-15,0.));
#785=DIRECTION('center_axis',(-0.707106781186548,1.57009245868378E-16,-0.707106781186547));
#786=DIRECTION('ref_axis',(-0.707106781186547,0.,0.707106781186548));
#787=DIRECTION('',(0.707106781186547,0.,-0.707106781186548));
#788=DIRECTION('',(-2.22044604925031E-16,-1.,0.));
#789=DIRECTION('',(2.22044604925031E-16,1.,0.));
#790=DIRECTION('center_axis',(5.2336415289459E-17,0.707106781186545,-0.70710678118655));
#791=DIRECTION('ref_axis',(-1.,0.,-7.40148683083433E-17));
#792=DIRECTION('',(0.,-0.70710678118655,-0.707106781186545));
#793=DIRECTION('',(-1.,7.40148683083438E-17,0.));
#794=DIRECTION('',(0.,0.70710678118655,0.707106781186545));
#795=DIRECTION('',(1.,-7.40148683083438E-17,0.));
#796=DIRECTION('center_axis',(0.,0.,1.));
#797=DIRECTION('ref_axis',(0.,1.,0.));
#798=DIRECTION('center_axis',(0.,0.,1.));
#799=DIRECTION('ref_axis',(0.,1.,0.));
#800=DIRECTION('center_axis',(0.,0.,-1.));
#801=DIRECTION('ref_axis',(0.,1.,0.));
#802=DIRECTION('center_axis',(0.,0.,1.));
#803=DIRECTION('ref_axis',(0.979792696984794,0.200015676723759,0.));
#804=DIRECTION('center_axis',(0.,0.,-1.));
#805=DIRECTION('ref_axis',(0.979792696984794,0.200015676723759,0.));
#806=DIRECTION('center_axis',(0.,0.,1.));
#807=DIRECTION('ref_axis',(0.979792696984794,-0.200015676723759,0.));
#808=DIRECTION('center_axis',(0.,0.,-1.));
#809=DIRECTION('ref_axis',(-1.,0.,0.));
#810=DIRECTION('',(0.,0.,-1.));
#811=DIRECTION('center_axis',(0.,0.,-1.));
#812=DIRECTION('ref_axis',(-1.,0.,0.));
#813=DIRECTION('center_axis',(0.,0.,-1.));
#814=DIRECTION('ref_axis',(0.979792696984795,0.200015676723757,0.));
#815=DIRECTION('',(0.,0.,1.));
#816=DIRECTION('center_axis',(7.40148683083438E-17,1.,0.));
#817=DIRECTION('ref_axis',(-1.,7.40148683083438E-17,0.));
#818=DIRECTION('',(0.,0.,1.));
#819=DIRECTION('center_axis',(0.,0.,1.));
#820=DIRECTION('ref_axis',(-1.,0.,0.));
#821=DIRECTION('center_axis',(0.,0.,1.));
#822=DIRECTION('ref_axis',(1.,0.,0.));
#823=DIRECTION('center_axis',(0.,0.,1.));
#824=DIRECTION('ref_axis',(1.,0.,0.));
#825=DIRECTION('center_axis',(0.,-1.74679771038318E-15,1.));
#826=DIRECTION('ref_axis',(-1.,3.08400667705143E-17,0.));
#827=DIRECTION('',(-0.149991928904063,0.352063958209819,0.923879532511286));
#828=DIRECTION('center_axis',(7.40148683083437E-17,-1.,0.));
#829=DIRECTION('ref_axis',(1.,7.40148683083437E-17,0.));
#830=DIRECTION('',(0.,0.,1.));
#831=DIRECTION('center_axis',(0.,0.,1.));
#832=DIRECTION('ref_axis',(-1.,-1.66696762934512E-15,0.));
#833=DIRECTION('',(0.,0.,1.));
#834=DIRECTION('center_axis',(-1.,2.22044604925031E-16,0.));
#835=DIRECTION('ref_axis',(-2.22044604925031E-16,-1.,0.));
#836=DIRECTION('',(0.,0.,1.));
#837=DIRECTION('center_axis',(0.,0.,1.));
#838=DIRECTION('ref_axis',(0.,1.,0.));
#839=DIRECTION('center_axis',(0.,0.,-1.));
#840=DIRECTION('ref_axis',(-1.,0.,0.));
#841=DIRECTION('center_axis',(0.,0.,-1.));
#842=DIRECTION('ref_axis',(-1.,0.,0.));
#843=DIRECTION('',(0.,0.,-1.));
#844=DIRECTION('center_axis',(0.,0.,-1.));
#845=DIRECTION('ref_axis',(-1.,0.,0.));
#846=DIRECTION('center_axis',(0.,0.,-1.));
#847=DIRECTION('ref_axis',(-1.,0.,0.));
#848=DIRECTION('',(0.,0.,-1.));
#849=DIRECTION('center_axis',(0.,0.,1.));
#850=DIRECTION('ref_axis',(-1.,0.,0.));
#851=DIRECTION('center_axis',(0.,0.,-1.));
#852=DIRECTION('ref_axis',(-1.,0.,0.));
#853=DIRECTION('center_axis',(0.,0.,1.));
#854=DIRECTION('ref_axis',(-1.,0.,0.));
#855=DIRECTION('center_axis',(0.,0.,-1.));
#856=DIRECTION('ref_axis',(-1.,0.,0.));
#857=DIRECTION('center_axis',(0.,0.,-1.));
#858=DIRECTION('ref_axis',(-1.,0.,0.));
#859=DIRECTION('',(0.,0.,-1.));
#860=DIRECTION('center_axis',(0.,0.,-1.));
#861=DIRECTION('ref_axis',(-1.,0.,0.));
#862=DIRECTION('',(0.,0.,-1.));
#863=CARTESIAN_POINT('',(0.,0.,0.));
#864=CARTESIAN_POINT('Ctrl Pts',(-23.5098262526613,23.9960812858543,19.8082038200429));
#865=CARTESIAN_POINT('Ctrl Pts',(-24.6830796375108,23.9960812858543,20.6424857413291));
#866=CARTESIAN_POINT('Ctrl Pts',(-26.1366800947849,23.9960812858543,21.053));
#867=CARTESIAN_POINT('Ctrl Pts',(-27.5764201615533,23.9960812858543,21.053));
#868=CARTESIAN_POINT('Ctrl Pts',(-23.4232669378802,23.9960812858543,19.9299324665184));
#869=CARTESIAN_POINT('Ctrl Pts',(-24.6342416199318,23.9960057687097,20.7758009907722));
#870=CARTESIAN_POINT('Ctrl Pts',(-26.1144512257044,23.9961243121717,21.1771430968926));
#871=CARTESIAN_POINT('Ctrl Pts',(-27.5764201615533,23.9960812858543,21.1651997376282));
#872=CARTESIAN_POINT('Ctrl Pts',(-23.2508348457065,23.9041665985609,20.1724242797026));
#873=CARTESIAN_POINT('Ctrl Pts',(-24.5369038864081,23.9198281044035,21.0415525245362));
#874=CARTESIAN_POINT('Ctrl Pts',(-26.070053085199,23.933688841049,21.4249434095814));
#875=CARTESIAN_POINT('Ctrl Pts',(-27.5764201615533,23.9447570787766,21.3892501154938));
#876=CARTESIAN_POINT('Ctrl Pts',(-23.0520272363343,23.4770760742673,20.4520080686815));
#877=CARTESIAN_POINT('Ctrl Pts',(-24.4076711569195,23.5568147380232,21.3713349430089));
#878=CARTESIAN_POINT('Ctrl Pts',(-26.0076408523888,23.6322339506336,21.7576275516708));
#879=CARTESIAN_POINT('Ctrl Pts',(-27.5764201615533,23.6938298587225,21.7046126173352));
#880=CARTESIAN_POINT('Ctrl Pts',(-23.0681646629721,23.0675999305145,20.4293139530085));
#881=CARTESIAN_POINT('Ctrl Pts',(-24.3854952347303,23.1843094900948,21.3916837682923));
#882=CARTESIAN_POINT('Ctrl Pts',(-25.9879851565925,23.3070284227516,21.8314863419903));
#883=CARTESIAN_POINT('Ctrl Pts',(-27.5764201615533,23.4143808922966,21.803));
#884=CARTESIAN_POINT('Ctrl Pts',(-23.1327169183218,22.8732025522772,20.3385339059328));
#885=CARTESIAN_POINT('Ctrl Pts',(-24.4013569112528,22.9861275076903,21.3200420486225));
#886=CARTESIAN_POINT('Ctrl Pts',(-25.9881520141781,23.1208766430911,21.803));
#887=CARTESIAN_POINT('Ctrl Pts',(-27.5764201615533,23.2460812858543,21.803));
#888=CARTESIAN_POINT('',(-23.1327169183218,22.8732025522772,20.3385339059328));
#889=CARTESIAN_POINT('',(-23.5098262526613,23.9960812858543,19.8082038200429));
#890=CARTESIAN_POINT('Origin',(-23.5098262526613,23.2460812858543,19.8082038200429));
#891=CARTESIAN_POINT('',(-27.5764201615533,23.9960812858543,21.053));
#892=CARTESIAN_POINT('Ctrl Pts',(-23.5098262526613,23.9960812858543,19.8082038200429));
#893=CARTESIAN_POINT('Ctrl Pts',(-24.6830796375108,23.9960812858543,20.6424857413291));
#894=CARTESIAN_POINT('Ctrl Pts',(-26.1366800947849,23.9960812858543,21.053));
#895=CARTESIAN_POINT('Ctrl Pts',(-27.5764201615533,23.9960812858543,21.053));
#896=CARTESIAN_POINT('',(-27.5764201615533,23.2460812858543,21.803));
#897=CARTESIAN_POINT('Origin',(-27.5764201615533,23.2460812858543,21.053));
#898=CARTESIAN_POINT('Ctrl Pts',(-27.5764201615533,23.2460812858543,21.803));
#899=CARTESIAN_POINT('Ctrl Pts',(-25.9881520141781,23.1208766430911,21.803));
#900=CARTESIAN_POINT('Ctrl Pts',(-24.4013569112528,22.9861275076903,21.3200420486225));
#901=CARTESIAN_POINT('Ctrl Pts',(-23.1327169183218,22.8732025522772,20.3385339059328));
#902=CARTESIAN_POINT('Origin',(-15.9990203214636,23.2460812858543,21.053));
#903=CARTESIAN_POINT('',(-60.,23.9960812858543,21.053));
#904=CARTESIAN_POINT('',(-60.,23.2460812858543,21.803));
#905=CARTESIAN_POINT('Origin',(-60.,23.2460812858543,21.053));
#906=CARTESIAN_POINT('',(-15.9990203214636,23.2460812858543,21.803));
#907=CARTESIAN_POINT('',(-15.9990203214636,23.9960812858543,21.053));
#908=CARTESIAN_POINT('Origin',(-60.,20.,21.053));
#909=CARTESIAN_POINT('',(-63.9960812858543,20.,21.053));
#910=CARTESIAN_POINT('',(-63.2460812858543,20.,21.803));
#911=CARTESIAN_POINT('Origin',(-63.2460812858543,20.,21.053));
#912=CARTESIAN_POINT('Origin',(-60.,20.,21.803));
#913=CARTESIAN_POINT('Origin',(-60.,20.,21.053));
#914=CARTESIAN_POINT('Origin',(-63.2460812858543,10.,21.053));
#915=CARTESIAN_POINT('',(-63.9960812858543,-20.,21.053));
#916=CARTESIAN_POINT('',(-63.2460812858543,-20.,21.803));
#917=CARTESIAN_POINT('Origin',(-63.2460812858543,-20.,21.053));
#918=CARTESIAN_POINT('',(-63.2460812858543,10.,21.803));
#919=CARTESIAN_POINT('',(-63.9960812858543,10.,21.053));
#920=CARTESIAN_POINT('Origin',(-60.,-20.,21.053));
#921=CARTESIAN_POINT('',(-60.,-23.9960812858543,21.053));
#922=CARTESIAN_POINT('',(-60.,-23.2460812858543,21.803));
#923=CARTESIAN_POINT('Origin',(-60.,-23.2460812858543,21.053));
#924=CARTESIAN_POINT('Origin',(-60.,-20.,21.803));
#925=CARTESIAN_POINT('Origin',(-60.,-20.,21.053));
#926=CARTESIAN_POINT('Origin',(-45.9990203214636,-23.2460812858543,21.053));
#927=CARTESIAN_POINT('',(-27.5764201615533,-23.9960812858543,21.053));
#928=CARTESIAN_POINT('',(-27.5764201615533,-23.2460812858543,21.803));
#929=CARTESIAN_POINT('Origin',(-27.5764201615533,-23.2460812858543,21.053));
#930=CARTESIAN_POINT('',(-45.9990203214636,-23.2460812858543,21.803));
#931=CARTESIAN_POINT('',(-45.9990203214636,-23.9960812858543,21.053));
#932=CARTESIAN_POINT('Ctrl Pts',(-27.5764201615533,-23.9960812858543,21.053));
#933=CARTESIAN_POINT('Ctrl Pts',(-26.1366800970173,-23.9960812858543,21.053));
#934=CARTESIAN_POINT('Ctrl Pts',(-24.6830796421207,-23.9960812858543,20.6424857425481));
#935=CARTESIAN_POINT('Ctrl Pts',(-23.509826258119,-23.9960812858543,19.8082038239237));
#936=CARTESIAN_POINT('Ctrl Pts',(-27.5764201615533,-23.9960812858543,21.1651997376282));
#937=CARTESIAN_POINT('Ctrl Pts',(-26.1144512279713,-23.9961243121716,21.1771430968741));
#938=CARTESIAN_POINT('Ctrl Pts',(-24.6342416246256,-23.9960057687098,20.7758009919464));
#939=CARTESIAN_POINT('Ctrl Pts',(-23.4232669435132,-23.9960812858543,19.9299324704532));
#940=CARTESIAN_POINT('Ctrl Pts',(-27.5764201615533,-23.9447570787766,21.3892501154938));
#941=CARTESIAN_POINT('Ctrl Pts',(-26.0700530875348,-23.9336888410661,21.424943409526));
#942=CARTESIAN_POINT('Ctrl Pts',(-24.5369038912687,-23.9198281044488,21.041552525622));
#943=CARTESIAN_POINT('Ctrl Pts',(-23.2508348516879,-23.9041665986334,20.1724242837458));
#944=CARTESIAN_POINT('Ctrl Pts',(-27.5764201615533,-23.6938298587225,21.7046126173351));
#945=CARTESIAN_POINT('Ctrl Pts',(-26.0076408548213,-23.6322339507291,21.7576275515886));
#946=CARTESIAN_POINT('Ctrl Pts',(-24.4076711619914,-23.5568147382694,21.371334944084));
#947=CARTESIAN_POINT('Ctrl Pts',(-23.0520272426405,-23.4770760746387,20.4520080729579));
#948=CARTESIAN_POINT('Ctrl Pts',(-27.5764201615533,-23.4143808922966,21.803));
#949=CARTESIAN_POINT('Ctrl Pts',(-25.9879851590555,-23.307028422918,21.8314863419461));
#950=CARTESIAN_POINT('Ctrl Pts',(-24.3854952398085,-23.1843094904913,21.3916837695625));
#951=CARTESIAN_POINT('Ctrl Pts',(-23.0681646690951,-23.0675999310546,20.4293139574865));
#952=CARTESIAN_POINT('Ctrl Pts',(-27.5764201615533,-23.2460812858543,21.803));
#953=CARTESIAN_POINT('Ctrl Pts',(-25.9881520166409,-23.1208766432852,21.803));
#954=CARTESIAN_POINT('Ctrl Pts',(-24.4013569162767,-22.9861275081204,21.3200420500565));
#955=CARTESIAN_POINT('Ctrl Pts',(-23.1327169242232,-22.8732025528025,20.3385339104985));
#956=CARTESIAN_POINT('',(-23.509826258119,-23.9960812858543,19.8082038239237));
#957=CARTESIAN_POINT('',(-23.1327169235794,-22.8732025509502,20.3385339115438));
#958=CARTESIAN_POINT('Origin',(-23.509826258119,-23.2460812858543,19.8082038239237));
#959=CARTESIAN_POINT('Ctrl Pts',(-23.1327169242232,-22.8732025528025,20.3385339104985));
#960=CARTESIAN_POINT('Ctrl Pts',(-24.4013569162767,-22.9861275081204,21.3200420500565));
#961=CARTESIAN_POINT('Ctrl Pts',(-25.9881520166409,-23.1208766432852,21.803));
#962=CARTESIAN_POINT('Ctrl Pts',(-27.5764201615533,-23.2460812858543,21.803));
#963=CARTESIAN_POINT('Ctrl Pts',(-27.5764201615533,-23.9960812858543,21.053));
#964=CARTESIAN_POINT('Ctrl Pts',(-26.1366800970173,-23.9960812858543,21.053));
#965=CARTESIAN_POINT('Ctrl Pts',(-24.6830796421207,-23.9960812858543,20.6424857425481));
#966=CARTESIAN_POINT('Ctrl Pts',(-23.509826258119,-23.9960812858543,19.8082038239237));
#967=CARTESIAN_POINT('Ctrl Pts',(-9.23584643690429,23.9960812858543,11.7598779231817));
#968=CARTESIAN_POINT('Ctrl Pts',(-11.4365591620677,23.9960812858543,12.5724530436183));
#969=CARTESIAN_POINT('Ctrl Pts',(-16.369852419917,23.9960812858543,14.9702520279633));
#970=CARTESIAN_POINT('Ctrl Pts',(-20.9616055333344,23.9960812858543,17.9962043789723));
#971=CARTESIAN_POINT('Ctrl Pts',(-23.5098262526613,23.9960812858543,19.8082038200429));
#972=CARTESIAN_POINT('Ctrl Pts',(-9.1792433272698,23.9960812858543,11.913177206563));
#973=CARTESIAN_POINT('Ctrl Pts',(-11.3704118799292,23.9960516159078,12.720079988289));
#974=CARTESIAN_POINT('Ctrl Pts',(-16.2897064053515,23.9960596266281,15.1047489686334));
#975=CARTESIAN_POINT('Ctrl Pts',(-20.8768285390449,23.9961050122578,18.1219450656474));
#976=CARTESIAN_POINT('Ctrl Pts',(-23.4232669378802,23.9960812858543,19.9299324665184));
#977=CARTESIAN_POINT('Ctrl Pts',(-9.06613627533452,23.8853743887773,12.2195071965409));
#978=CARTESIAN_POINT('Ctrl Pts',(-11.2382127262783,23.8882226377617,13.0150670143703));
#979=CARTESIAN_POINT('Ctrl Pts',(-16.1295214763792,23.8954398299921,15.373537074539));
#980=CARTESIAN_POINT('Ctrl Pts',(-20.7073767503405,23.9013017892759,18.3732849764778));
#981=CARTESIAN_POINT('Ctrl Pts',(-23.2502495887591,23.9041525533397,20.1732473284551));
#982=CARTESIAN_POINT('Ctrl Pts',(-8.97487176708462,23.4916049947599,12.4666806080938));
#983=CARTESIAN_POINT('Ctrl Pts',(-11.1299960879376,23.5030207576239,13.25722185057));
#984=CARTESIAN_POINT('Ctrl Pts',(-15.9929931627225,23.5323457676504,15.6039345050231));
#985=CARTESIAN_POINT('Ctrl Pts',(-20.5576762091581,23.5567973484617,18.5955218012324));
#986=CARTESIAN_POINT('Ctrl Pts',(-23.0949437371094,23.5687217771527,20.3916544537755));
#987=CARTESIAN_POINT('Ctrl Pts',(-8.97249143763882,23.0705171908329,12.4731272998147));
#988=CARTESIAN_POINT('Ctrl Pts',(-11.1244140155892,23.0876275915483,13.2710727691239));
#989=CARTESIAN_POINT('Ctrl Pts',(-15.9761915754225,23.1322403781217,15.6346658184959));
#990=CARTESIAN_POINT('Ctrl Pts',(-20.5298044495215,23.1708929131428,18.637213408115));
#991=CARTESIAN_POINT('Ctrl Pts',(-23.0617171273259,23.19004539493,20.4383811434004));
#992=CARTESIAN_POINT('Ctrl Pts',(-9.01213407707186,22.845608902012,12.3657623819564));
#993=CARTESIAN_POINT('Ctrl Pts',(-11.1687281338612,22.8627551476977,13.1730508966273));
#994=CARTESIAN_POINT('Ctrl Pts',(-16.0226576934459,22.9083769524233,15.5585052630929));
#995=CARTESIAN_POINT('Ctrl Pts',(-20.5713169727332,22.9496793502709,18.5759310158904));
#996=CARTESIAN_POINT('Ctrl Pts',(-23.100440790647,22.9704012413959,20.3839239294706));
#997=CARTESIAN_POINT('Ctrl Pts',(-9.04003122282123,22.7532259298586,12.2902080090716));
#998=CARTESIAN_POINT('Ctrl Pts',(-11.2004463172411,22.7692364877132,13.1027831295082));
#999=CARTESIAN_POINT('Ctrl Pts',(-16.0577261495191,22.8124369948752,15.5005821138532));
#1000=CARTESIAN_POINT('Ctrl Pts',(-20.6047030018397,22.8527664874558,18.5265344648623));
#1001=CARTESIAN_POINT('Ctrl Pts',(-23.1327169183218,22.8732025522772,20.3385339059328));
#1002=CARTESIAN_POINT('',(-9.00899382894244,23.6115450191037,12.3742671759688));
#1003=CARTESIAN_POINT('',(-9.79715903543347,23.9960812858543,11.9725269997394));
#1004=CARTESIAN_POINT('Ctrl Pts',(-9.00899382894244,23.6115450191037,12.3742671759688));
#1005=CARTESIAN_POINT('Ctrl Pts',(-9.0586849409793,23.6751796469038,12.3547622933113));
#1006=CARTESIAN_POINT('Ctrl Pts',(-9.11515097749216,23.7315814556438,12.3291919088013));
#1007=CARTESIAN_POINT('Ctrl Pts',(-9.26504220804357,23.850275785641,12.2567197127544));
#1008=CARTESIAN_POINT('Ctrl Pts',(-9.36307696177686,23.9034464793589,12.205715158126));
#1009=CARTESIAN_POINT('Ctrl Pts',(-9.5713039201302,23.9767042478944,12.0949530694847));
#1010=CARTESIAN_POINT('Ctrl Pts',(-9.68200638219968,23.9955776953564,12.0347947156507));
#1011=CARTESIAN_POINT('Ctrl Pts',(-9.79418597154884,23.9960779711402,11.9741345093608));
#1012=CARTESIAN_POINT('Ctrl Pts',(-9.79567249286469,23.9960812858543,11.973330734143));
#1013=CARTESIAN_POINT('Ctrl Pts',(-9.79715903564366,23.9960812858543,11.9725269999027));
#1014=CARTESIAN_POINT('Ctrl Pts',(-9.79718266838797,23.9960812858543,11.9724661427253));
#1015=CARTESIAN_POINT('Ctrl Pts',(-11.7968265510179,23.9960812858543,12.7486204541512));
#1016=CARTESIAN_POINT('Ctrl Pts',(-16.5377276135767,23.9960812858543,15.0808813071043));
#1017=CARTESIAN_POINT('Ctrl Pts',(-20.9616055333344,23.9960812858543,17.9962043789723));
#1018=CARTESIAN_POINT('Ctrl Pts',(-23.5098262526613,23.9960812858543,19.8082038200429));
#1019=CARTESIAN_POINT('',(-9.29625617901958,22.7551401890594,12.3877401801558));
#1020=CARTESIAN_POINT('Ctrl Pts',(-23.1327169183218,22.8732025522772,20.3385339059328));
#1021=CARTESIAN_POINT('Ctrl Pts',(-20.6047030018397,22.8527664874558,18.5265344648623));
#1022=CARTESIAN_POINT('Ctrl Pts',(-16.1348774432662,22.813121289656,15.5519252691583));
#1023=CARTESIAN_POINT('Ctrl Pts',(-11.3651897636123,22.770701679177,13.1843337724706));
#1024=CARTESIAN_POINT('Ctrl Pts',(-9.29626182906732,22.7551391416148,12.3877252387275));
#1025=CARTESIAN_POINT('Ctrl Pts',(-9.29625617901958,22.7551401890594,12.3877401801558));
#1026=CARTESIAN_POINT('Ctrl Pts',(-9.28367000735156,22.8128203588266,12.4363763119738));
#1027=CARTESIAN_POINT('Ctrl Pts',(-9.26646225416744,22.8823546233717,12.477456004587));
#1028=CARTESIAN_POINT('Ctrl Pts',(-9.22704631642072,23.0450751470614,12.5339174239022));
#1029=CARTESIAN_POINT('Ctrl Pts',(-9.20586368454367,23.1334996498706,12.5456000009894));
#1030=CARTESIAN_POINT('Ctrl Pts',(-9.16058715951536,23.2913830140716,12.534273635073));
#1031=CARTESIAN_POINT('Ctrl Pts',(-9.13816008642783,23.3590978435539,12.5176797352713));
#1032=CARTESIAN_POINT('Ctrl Pts',(-9.08157448316611,23.4934477794896,12.4617736770908));
#1033=CARTESIAN_POINT('Ctrl Pts',(-9.04755061516334,23.5561282210074,12.4214677695571));
#1034=CARTESIAN_POINT('Ctrl Pts',(-9.00899382894244,23.6115450191037,12.3742671759688));
#1035=CARTESIAN_POINT('Ctrl Pts',(-9.04003122282139,-22.7532259298586,12.2902080090716));
#1036=CARTESIAN_POINT('Ctrl Pts',(-11.2009263983314,-22.7692400455322,13.1029636975624));
#1037=CARTESIAN_POINT('Ctrl Pts',(-16.065118438027,-22.8125030910281,15.5049821217467));
#1038=CARTESIAN_POINT('Ctrl Pts',(-20.6041747817749,-22.8527622174108,18.5261558534279));
#1039=CARTESIAN_POINT('Ctrl Pts',(-23.1327169237362,-22.873202552321,20.3385339098136));
#1040=CARTESIAN_POINT('Ctrl Pts',(-9.0028350284889,-22.876403226063,12.390947172918));
#1041=CARTESIAN_POINT('Ctrl Pts',(-11.1586437622674,-22.8939680946694,13.1966830666882));
#1042=CARTESIAN_POINT('Ctrl Pts',(-16.0183633180454,-22.9404527696089,15.5822139209144));
#1043=CARTESIAN_POINT('Ctrl Pts',(-20.5596662778583,-22.9819490612276,18.5920032289592));
#1044=CARTESIAN_POINT('Ctrl Pts',(-23.0896820868395,-23.00280080448,20.3990539411861));
#1045=CARTESIAN_POINT('Ctrl Pts',(-8.95741193302813,-23.1952919976027,12.5139674102877));
#1046=CARTESIAN_POINT('Ctrl Pts',(-11.1083200491826,-23.2116304413495,13.3077413802073));
#1047=CARTESIAN_POINT('Ctrl Pts',(-15.9672730557703,-23.2539723458269,15.6654432860383));
#1048=CARTESIAN_POINT('Ctrl Pts',(-20.5158834584464,-23.2898645632246,18.656558811459));
#1049=CARTESIAN_POINT('Ctrl Pts',(-23.0498856776456,-23.307550028933,20.4550197611266));
#1050=CARTESIAN_POINT('Ctrl Pts',(-9.0002463816756,-23.6526597718271,12.3979580545457));
#1051=CARTESIAN_POINT('Ctrl Pts',(-11.1608642180831,-23.6607568477362,13.1892086023021));
#1052=CARTESIAN_POINT('Ctrl Pts',(-16.0398515955319,-23.6814553092453,15.5414425305604));
#1053=CARTESIAN_POINT('Ctrl Pts',(-20.6014126312543,-23.6985041916006,18.5294035254718));
#1054=CARTESIAN_POINT('Ctrl Pts',(-23.1413307809177,-23.7068435741025,20.326420214388));
#1055=CARTESIAN_POINT('Ctrl Pts',(-9.10862270215203,-23.9345535835656,12.1044403949714));
#1056=CARTESIAN_POINT('Ctrl Pts',(-11.2883580391523,-23.9360994828339,12.9044537835791));
#1057=CARTESIAN_POINT('Ctrl Pts',(-16.1971364779393,-23.9400623563582,15.2769627039971));
#1058=CARTESIAN_POINT('Ctrl Pts',(-20.7704766052887,-23.943297849196,18.2785234259893));
#1059=CARTESIAN_POINT('Ctrl Pts',(-23.3152146505986,-23.9448582458996,20.081886761792));
#1060=CARTESIAN_POINT('Ctrl Pts',(-9.19339410467859,-23.9960812858543,11.8748523857177));
#1061=CARTESIAN_POINT('Ctrl Pts',(-11.3874131178643,-23.996077291523,12.6833142625191));
#1062=CARTESIAN_POINT('Ctrl Pts',(-16.3172041075853,-23.9960785868406,15.0754839223181));
#1063=CARTESIAN_POINT('Ctrl Pts',(-20.8974841364022,-23.9960876223662,18.0901563734893));
#1064=CARTESIAN_POINT('Ctrl Pts',(-23.4449067720303,-23.9960812858543,19.8995003087739));
#1065=CARTESIAN_POINT('Ctrl Pts',(-9.23584643690445,-23.9960812858543,11.7598779231817));
#1066=CARTESIAN_POINT('Ctrl Pts',(-11.437048197979,-23.9960812858543,12.5726336116725));
#1067=CARTESIAN_POINT('Ctrl Pts',(-16.3773353149761,-23.9960812858543,14.9746520358568));
#1068=CARTESIAN_POINT('Ctrl Pts',(-20.9610730911328,-23.9960812858543,17.995825767538));
#1069=CARTESIAN_POINT('Ctrl Pts',(-23.509826258119,-23.9960812858543,19.8082038239237));
#1070=CARTESIAN_POINT('',(-9.00899382894246,-23.6115450191037,12.3742671759688));
#1071=CARTESIAN_POINT('',(-9.29625617901961,-22.7551401890594,12.3877401801558));
#1072=CARTESIAN_POINT('Ctrl Pts',(-9.00899382894247,-23.6115450191037,12.3742671759688));
#1073=CARTESIAN_POINT('Ctrl Pts',(-9.06301404604585,-23.5339029810151,12.4403978513431));
#1074=CARTESIAN_POINT('Ctrl Pts',(-9.10217594429539,-23.4510431901263,12.4851604265987));
#1075=CARTESIAN_POINT('Ctrl Pts',(-9.16260996120826,-23.2883778279671,12.536142320495));
#1076=CARTESIAN_POINT('Ctrl Pts',(-9.18602690371341,-23.2056247340945,12.5457260662458));
#1077=CARTESIAN_POINT('Ctrl Pts',(-9.22483850328,-23.0549854478821,12.533295989442));
#1078=CARTESIAN_POINT('Ctrl Pts',(-9.24064341492141,-22.9890184268107,12.5173955805875));
#1079=CARTESIAN_POINT('Ctrl Pts',(-9.27069930461126,-22.8647168186708,12.4662038388646));
#1080=CARTESIAN_POINT('Ctrl Pts',(-9.28502006407777,-22.806633290732,12.4311593533443));
#1081=CARTESIAN_POINT('Ctrl Pts',(-9.29625617901961,-22.7551401890594,12.3877401801558));
#1082=CARTESIAN_POINT('Ctrl Pts',(-9.29626098039926,-22.7551391498586,12.3877274830153));
#1083=CARTESIAN_POINT('Ctrl Pts',(-11.3658555501594,-22.7707069243973,13.1846327961761));
#1084=CARTESIAN_POINT('Ctrl Pts',(-16.1421145107299,-22.8131860071206,15.5562303316556));
#1085=CARTESIAN_POINT('Ctrl Pts',(-20.6041747817749,-22.8527622174108,18.5261558534279));
#1086=CARTESIAN_POINT('Ctrl Pts',(-23.1327169237362,-22.873202552321,20.3385339098136));
#1087=CARTESIAN_POINT('',(-9.79715903564381,-23.9960812858543,11.9725269999027));
#1088=CARTESIAN_POINT('Ctrl Pts',(-23.509826258119,-23.9960812858543,19.8082038239237));
#1089=CARTESIAN_POINT('Ctrl Pts',(-20.9610730911328,-23.9960812858543,17.995825767538));
#1090=CARTESIAN_POINT('Ctrl Pts',(-16.5448634518001,-23.9960812858543,15.0850710063579));
#1091=CARTESIAN_POINT('Ctrl Pts',(-11.7976907923094,-23.9960812858543,12.7490403774202));
#1092=CARTESIAN_POINT('Ctrl Pts',(-9.79717891283727,-23.9960812858543,11.972475824526));
#1093=CARTESIAN_POINT('Ctrl Pts',(-9.7971590356437,-23.9960812858543,11.9725269999027));
#1094=CARTESIAN_POINT('Ctrl Pts',(-9.79567249046158,-23.9960812858543,11.9733307354423));
#1095=CARTESIAN_POINT('Ctrl Pts',(-9.79418596675123,-23.9960779711295,11.9741345119534));
#1096=CARTESIAN_POINT('Ctrl Pts',(-9.68200637601568,-23.9955776945317,12.0347947190336));
#1097=CARTESIAN_POINT('Ctrl Pts',(-9.57130391517802,-23.9767042466313,12.09495307215));
#1098=CARTESIAN_POINT('Ctrl Pts',(-9.36307700806941,-23.9034464951835,12.2057151334716));
#1099=CARTESIAN_POINT('Ctrl Pts',(-9.26504230029838,-23.8502758354382,12.2567196646396));
#1100=CARTESIAN_POINT('Ctrl Pts',(-9.11515105528652,-23.7315815332978,12.3291918736101));
#1101=CARTESIAN_POINT('Ctrl Pts',(-9.05868497528517,-23.6751796908359,12.3547622798455));
#1102=CARTESIAN_POINT('Ctrl Pts',(-9.00899382894246,-23.6115450191037,12.3742671759688));
#1103=CARTESIAN_POINT('Origin',(-31.9980406429272,4.44089209850063E-15,
21.803));
#1104=CARTESIAN_POINT('Origin',(0.,0.,21.803));
#1105=CARTESIAN_POINT('',(-63.,-20.,21.803));
#1106=CARTESIAN_POINT('',(-57.,-20.,21.803));
#1107=CARTESIAN_POINT('Origin',(-60.,-20.,21.803));
#1108=CARTESIAN_POINT('',(-60.,-23.,21.803));
#1109=CARTESIAN_POINT('Origin',(-60.,-20.,21.803));
#1110=CARTESIAN_POINT('Origin',(-60.,-20.,21.803));
#1111=CARTESIAN_POINT('',(-60.,23.,21.803));
#1112=CARTESIAN_POINT('',(-57.,20.,21.803));
#1113=CARTESIAN_POINT('Origin',(-60.,20.,21.803));
#1114=CARTESIAN_POINT('',(-63.,20.,21.803));
#1115=CARTESIAN_POINT('Origin',(-60.,20.,21.803));
#1116=CARTESIAN_POINT('Origin',(-60.,20.,21.803));
#1117=CARTESIAN_POINT('Origin',(0.,0.,16.803));
#1118=CARTESIAN_POINT('Origin',(0.,-2.89492062618674E-15,20.3385339059327));
#1119=CARTESIAN_POINT('Origin',(0.,0.,16.803));
#1120=CARTESIAN_POINT('',(-9.5437857101274,-22.4013585128498,12.1565533905933));
#1121=CARTESIAN_POINT('Ctrl Pts',(-9.5437857101274,-22.4013585128498,12.1565533905933));
#1122=CARTESIAN_POINT('Ctrl Pts',(-9.51290981872306,-22.4145127548572,12.1565533905933));
#1123=CARTESIAN_POINT('Ctrl Pts',(-9.48157873076516,-22.4340070710002,12.1622678803024));
#1124=CARTESIAN_POINT('Ctrl Pts',(-9.41166231762357,-22.501500271831,12.1973803720814));
#1125=CARTESIAN_POINT('Ctrl Pts',(-9.37602810500987,-22.5502453087934,12.2286567271441));
#1126=CARTESIAN_POINT('Ctrl Pts',(-9.32676268317742,-22.6482554751402,12.3003954963795));
#1127=CARTESIAN_POINT('Ctrl Pts',(-9.3085019120768,-22.7000561040754,12.3413815804703));
#1128=CARTESIAN_POINT('Ctrl Pts',(-9.29641364819234,-22.7551890679401,12.387846450695));
#1129=CARTESIAN_POINT('',(-9.54378571012737,22.4013585128498,12.1565533905933));
#1130=CARTESIAN_POINT('Origin',(0.,-1.49098510837814E-15,12.1565533905933));
#1131=CARTESIAN_POINT('Ctrl Pts',(-9.29641355787133,22.7551892020862,12.3878465519442));
#1132=CARTESIAN_POINT('Ctrl Pts',(-9.30850182472622,22.7000562230555,12.3413816674063));
#1133=CARTESIAN_POINT('Ctrl Pts',(-9.32676272921405,22.6482555171196,12.3003955574915));
#1134=CARTESIAN_POINT('Ctrl Pts',(-9.37602808496023,22.5502453641312,12.2286567757299));
#1135=CARTESIAN_POINT('Ctrl Pts',(-9.41166232306044,22.5015003025516,12.1973804056159));
#1136=CARTESIAN_POINT('Ctrl Pts',(-9.48157872952119,22.4340070904445,12.1622678996727));
#1137=CARTESIAN_POINT('Ctrl Pts',(-9.51290981872293,22.4145127548572,12.1565533905933));
#1138=CARTESIAN_POINT('Ctrl Pts',(-9.54378571012737,22.4013585128498,12.1565533905933));
#1139=CARTESIAN_POINT('Ctrl Pts',(-9.40521123697105,-22.0760938277248,11.303));
#1140=CARTESIAN_POINT('Ctrl Pts',(-9.23639728997215,-22.1480146504782,11.303));
#1141=CARTESIAN_POINT('Ctrl Pts',(-9.08680400226334,-22.2722782554304,11.3406318401075));
#1142=CARTESIAN_POINT('Ctrl Pts',(-8.89095208974206,-22.5426726658436,11.4645360531865));
#1143=CARTESIAN_POINT('Ctrl Pts',(-8.83888845780025,-22.6849245804796,11.5479276494618));
#1144=CARTESIAN_POINT('Ctrl Pts',(-8.78123172534013,-22.9843573005089,11.7501949903374));
#1145=CARTESIAN_POINT('Ctrl Pts',(-8.79801640069794,-23.1521351323296,11.8885429479098));
#1146=CARTESIAN_POINT('Ctrl Pts',(-8.88233479884805,-23.4202456705099,12.1470818393318));
#1147=CARTESIAN_POINT('Ctrl Pts',(-8.9428063378091,-23.5275340880823,12.2674690083592));
#1148=CARTESIAN_POINT('Ctrl Pts',(-9.01160231708672,-23.6148709447285,12.3784874316315));
#1149=CARTESIAN_POINT('Ctrl Pts',(-9.45140272802317,-22.1845153894331,11.5875177968644));
#1150=CARTESIAN_POINT('Ctrl Pts',(-9.32931825187472,-22.236971937258,11.5877758945207));
#1151=CARTESIAN_POINT('Ctrl Pts',(-9.2185667682632,-22.3263273365399,11.6146308587444));
#1152=CARTESIAN_POINT('Ctrl Pts',(-9.06456652023065,-22.5288742123803,11.708789548976));
#1153=CARTESIAN_POINT('Ctrl Pts',(-9.01813575972233,-22.6400614023439,11.7749031749841));
#1154=CARTESIAN_POINT('Ctrl Pts',(-8.95749848091863,-22.8833150459019,11.9416284330841));
#1155=CARTESIAN_POINT('Ctrl Pts',(-8.96006570791116,-23.0278691223888,12.0609005346108));
#1156=CARTESIAN_POINT('Ctrl Pts',(-9.01406488141143,-23.2691464804917,12.2903277864172));
#1157=CARTESIAN_POINT('Ctrl Pts',(-9.05859643533989,-23.369820175512,12.3992793439316));
#1158=CARTESIAN_POINT('Ctrl Pts',(-9.11291700355086,-23.4543219142582,12.5007755900834));
#1159=CARTESIAN_POINT('Ctrl Pts',(-9.49759421907529,-22.2929369511415,11.8720355937289));
#1160=CARTESIAN_POINT('Ctrl Pts',(-9.41998885682049,-22.3255554680774,11.8717774960725));
#1161=CARTESIAN_POINT('Ctrl Pts',(-9.34981596476531,-22.3799579898906,11.8882688616655));
#1162=CARTESIAN_POINT('Ctrl Pts',(-9.23804788713498,-22.5152987252943,11.9531268762918));
#1163=CARTESIAN_POINT('Ctrl Pts',(-9.1967808030878,-22.595108486929,12.0016812016218));
#1164=CARTESIAN_POINT('Ctrl Pts',(-9.13394622762092,-22.7822222189224,12.1330612100689));
#1165=CARTESIAN_POINT('Ctrl Pts',(-9.12205075301371,-22.9038069536289,12.2333430757671));
#1166=CARTESIAN_POINT('Ctrl Pts',(-9.14568677800518,-23.1178570046984,12.4334377714085));
#1167=CARTESIAN_POINT('Ctrl Pts',(-9.17463025742626,-23.2122812324058,12.5311931015092));
#1168=CARTESIAN_POINT('Ctrl Pts',(-9.21423169001501,-23.2937728837879,12.6230637485352));
#1169=CARTESIAN_POINT('Ctrl Pts',(-9.5437857101274,-22.4013585128498,12.1565533905933));
#1170=CARTESIAN_POINT('Ctrl Pts',(-9.51290981872306,-22.4145127548572,12.1565533905933));
#1171=CARTESIAN_POINT('Ctrl Pts',(-9.48157873076516,-22.4340070710002,12.1622678803024));
#1172=CARTESIAN_POINT('Ctrl Pts',(-9.41166231762357,-22.501500271831,12.1973803720814));
#1173=CARTESIAN_POINT('Ctrl Pts',(-9.37602810500987,-22.5502453087934,12.2286567271441));
#1174=CARTESIAN_POINT('Ctrl Pts',(-9.31021298319941,-22.6811799643154,12.3244946528157));
#1175=CARTESIAN_POINT('Ctrl Pts',(-9.28410006022693,-22.7795409436881,12.4057006624681));
#1176=CARTESIAN_POINT('Ctrl Pts',(-9.27741686056857,-22.9667578146802,12.5766837184939));
#1177=CARTESIAN_POINT('Ctrl Pts',(-9.29042035495705,-23.0545673198354,12.6630034370816));
#1178=CARTESIAN_POINT('Ctrl Pts',(-9.31554637647915,-23.1332238533175,12.7453519069871));
#1179=CARTESIAN_POINT('',(-9.40521123697105,-22.0760938277248,11.303));
#1180=CARTESIAN_POINT('Ctrl Pts',(-9.00899393372052,-23.6115448917806,12.3742672119067));
#1181=CARTESIAN_POINT('Ctrl Pts',(-8.9412789138017,-23.524815362476,12.264421488105));
#1182=CARTESIAN_POINT('Ctrl Pts',(-8.88184159249775,-23.4186774028137,12.1455695593805));
#1183=CARTESIAN_POINT('Ctrl Pts',(-8.79801640069794,-23.1521351323296,11.8885429479098));
#1184=CARTESIAN_POINT('Ctrl Pts',(-8.78123172534013,-22.9843573005089,11.7501949903374));
#1185=CARTESIAN_POINT('Ctrl Pts',(-8.83888845780025,-22.6849245804796,11.5479276494618));
#1186=CARTESIAN_POINT('Ctrl Pts',(-8.89095208974206,-22.5426726658436,11.4645360531865));
#1187=CARTESIAN_POINT('Ctrl Pts',(-9.08680400226334,-22.2722782554304,11.3406318401075));
#1188=CARTESIAN_POINT('Ctrl Pts',(-9.23639728997215,-22.1480146504782,11.303));
#1189=CARTESIAN_POINT('Ctrl Pts',(-9.40521123697105,-22.0760938277248,11.303));
#1190=CARTESIAN_POINT('',(-9.40521123697105,-22.0760938277248,11.303));
#1191=CARTESIAN_POINT('Origin',(-9.79715903564389,-22.9960812858543,21.803));
#1192=CARTESIAN_POINT('',(-9.79715903564389,-23.9960812858543,10.25));
#1193=CARTESIAN_POINT('',(-9.79715903564389,-23.9960812858543,21.803));
#1194=CARTESIAN_POINT('',(-9.40521123697105,-22.0760938277248,10.25));
#1195=CARTESIAN_POINT('Origin',(-9.79715903564389,-22.9960812858543,10.25));
#1196=CARTESIAN_POINT('',(-9.40521123697105,-22.0760938277248,21.803));
#1197=CARTESIAN_POINT('Origin',(0.,0.,9.75));
#1198=CARTESIAN_POINT('',(-9.79715903564389,-22.9960812845092,9.25));
#1199=CARTESIAN_POINT('',(-9.40521123697105,-22.0760938277248,10.25));
#1200=CARTESIAN_POINT('',(-9.79715903564385,22.9960812858543,9.25));
#1201=CARTESIAN_POINT('Origin',(0.,0.,9.25));
#1202=CARTESIAN_POINT('',(-9.40521123697102,22.0760938277248,10.25));
#1203=CARTESIAN_POINT('',(-9.79715903564385,22.9960812858543,9.25));
#1204=CARTESIAN_POINT('Origin',(0.,0.,10.25));
#1205=CARTESIAN_POINT('Origin',(-36.0000000897286,-23.4960812851818,9.75));
#1206=CARTESIAN_POINT('',(-60.,-23.9960812858543,10.25));
#1207=CARTESIAN_POINT('',(-60.,-22.9960812845092,9.25));
#1208=CARTESIAN_POINT('',(-60.,-23.9960812858543,10.25));
#1209=CARTESIAN_POINT('',(-36.0000000897286,-22.9960812845092,9.25));
#1210=CARTESIAN_POINT('',(-9.79715903564389,-22.9960812845092,9.25));
#1211=CARTESIAN_POINT('',(-36.0000000897286,-23.9960812858543,10.25));
#1212=CARTESIAN_POINT('Origin',(-60.,-20.,9.75));
#1213=CARTESIAN_POINT('',(-63.9960812858543,-20.,10.25));
#1214=CARTESIAN_POINT('',(-62.9960812858543,-20.,9.25));
#1215=CARTESIAN_POINT('',(-63.9960812858543,-20.,10.25));
#1216=CARTESIAN_POINT('Origin',(-60.,-20.,9.25));
#1217=CARTESIAN_POINT('Origin',(-60.,-20.,10.25));
#1218=CARTESIAN_POINT('Origin',(-63.4960812858543,10.,9.75));
#1219=CARTESIAN_POINT('',(-63.9960812858543,20.,10.25));
#1220=CARTESIAN_POINT('',(-62.9960812858543,20.,9.25));
#1221=CARTESIAN_POINT('',(-63.9960812858543,20.,10.25));
#1222=CARTESIAN_POINT('',(-62.9960812858543,10.,9.25));
#1223=CARTESIAN_POINT('',(-63.9960812858543,10.,10.25));
#1224=CARTESIAN_POINT('Origin',(-6.00000008972853,23.4960812858543,9.75));
#1225=CARTESIAN_POINT('',(-9.79715903564385,23.9960812858543,10.25));
#1226=CARTESIAN_POINT('',(-9.79715903564385,23.9960812858543,10.25));
#1227=CARTESIAN_POINT('',(-60.,22.9960812858543,9.25));
#1228=CARTESIAN_POINT('',(-6.00000008972853,22.9960812858543,9.25));
#1229=CARTESIAN_POINT('',(-60.,23.9960812858543,10.25));
#1230=CARTESIAN_POINT('',(-60.,22.9960812858543,9.25));
#1231=CARTESIAN_POINT('',(-6.00000008972853,23.9960812858543,10.25));
#1232=CARTESIAN_POINT('Origin',(-60.,20.,9.75));
#1233=CARTESIAN_POINT('Origin',(-60.,20.,9.25));
#1234=CARTESIAN_POINT('Origin',(-60.,20.,10.25));
#1235=CARTESIAN_POINT('Origin',(-9.79715903564385,22.9960812858543,10.25));
#1236=CARTESIAN_POINT('Origin',(-9.79715903564385,22.9960812858543,10.25));
#1237=CARTESIAN_POINT('Origin',(-9.79715903564389,-22.9960812858543,10.25));
#1238=CARTESIAN_POINT('Origin',(0.,0.,21.803));
#1239=CARTESIAN_POINT('',(-9.40521123697102,22.0760938277248,11.303));
#1240=CARTESIAN_POINT('',(-9.40521123697102,22.0760938277248,21.803));
#1241=CARTESIAN_POINT('Origin',(0.,0.,11.303));
#1242=CARTESIAN_POINT('Origin',(-9.79715903564385,22.9960812858543,21.803));
#1243=CARTESIAN_POINT('Ctrl Pts',(-9.40521123697102,22.0760938277248,11.303));
#1244=CARTESIAN_POINT('Ctrl Pts',(-9.23639728997218,22.1480146504782,11.303));
#1245=CARTESIAN_POINT('Ctrl Pts',(-9.08680392029293,22.2722782324321,11.3406318051299));
#1246=CARTESIAN_POINT('Ctrl Pts',(-8.8909519475542,22.5426726215334,11.4645359914745));
#1247=CARTESIAN_POINT('Ctrl Pts',(-8.83888825315406,22.6849245329199,11.5479275644727));
#1248=CARTESIAN_POINT('Ctrl Pts',(-8.78123144601852,22.9843571799575,11.7501948612074));
#1249=CARTESIAN_POINT('Ctrl Pts',(-8.79801584502039,23.1521351869475,11.8885427605417));
#1250=CARTESIAN_POINT('Ctrl Pts',(-8.88184124768826,23.4186768687363,12.145569304868));
#1251=CARTESIAN_POINT('Ctrl Pts',(-8.94127764621708,23.5248176702925,12.2644214525795));
#1252=CARTESIAN_POINT('Ctrl Pts',(-9.00899388142008,23.6115449530868,12.3742671929135));
#1253=CARTESIAN_POINT('',(-9.79715903564385,23.9960812858543,21.803));
#1254=CARTESIAN_POINT('Origin',(5.87734482776023E-15,23.9960812858543,9.25));
#1255=CARTESIAN_POINT('',(-60.,23.9960812858543,9.25));
#1256=CARTESIAN_POINT('Origin',(-12.0000001794571,0.,9.25));
#1257=CARTESIAN_POINT('',(-58.65,-20.,9.25));
#1258=CARTESIAN_POINT('Origin',(-60.,-20.,9.25));
#1259=CARTESIAN_POINT('',(-58.65,20.,9.25));
#1260=CARTESIAN_POINT('Origin',(-60.,20.,9.25));
#1261=CARTESIAN_POINT('Origin',(0.,-7.45492554189068E-16,11.7297766952966));
#1262=CARTESIAN_POINT('',(-9.40521123697102,22.0760938277248,11.303));
#1263=CARTESIAN_POINT('Ctrl Pts',(-9.01085482286645,23.6139208159659,12.377280287179));
#1264=CARTESIAN_POINT('Ctrl Pts',(-8.94236712319653,23.5267587550272,12.2665965924833));
#1265=CARTESIAN_POINT('Ctrl Pts',(-8.88219327429982,23.4197962163577,12.1466486934614));
#1266=CARTESIAN_POINT('Ctrl Pts',(-8.79801584502039,23.1521351869475,11.8885427605417));
#1267=CARTESIAN_POINT('Ctrl Pts',(-8.78123144601852,22.9843571799575,11.7501948612074));
#1268=CARTESIAN_POINT('Ctrl Pts',(-8.83888825315406,22.6849245329199,11.5479275644727));
#1269=CARTESIAN_POINT('Ctrl Pts',(-8.8909519475542,22.5426726215334,11.4645359914745));
#1270=CARTESIAN_POINT('Ctrl Pts',(-9.08680392029293,22.2722782324321,11.3406318051299));
#1271=CARTESIAN_POINT('Ctrl Pts',(-9.23639728997218,22.1480146504782,11.303));
#1272=CARTESIAN_POINT('Ctrl Pts',(-9.40521123697102,22.0760938277248,11.303));
#1273=CARTESIAN_POINT('Ctrl Pts',(-9.11232778419452,23.4534033781584,12.4996723977108));
#1274=CARTESIAN_POINT('Ctrl Pts',(-9.05827137038954,23.3690918576728,12.398489229806));
#1275=CARTESIAN_POINT('Ctrl Pts',(-9.0139745921347,23.2687422686134,12.2899435706359));
#1276=CARTESIAN_POINT('Ctrl Pts',(-8.96006482906441,23.0278689441283,12.0609002078965));
#1277=CARTESIAN_POINT('Ctrl Pts',(-8.95749837702451,22.8833150554337,11.9416283820285));
#1278=CARTESIAN_POINT('Ctrl Pts',(-9.01813546958557,22.6400612911723,11.7749030518022));
#1279=CARTESIAN_POINT('Ctrl Pts',(-9.06456642252701,22.5288742012151,11.7087895071673));
#1280=CARTESIAN_POINT('Ctrl Pts',(-9.21856665608903,22.3263272910337,11.6146308102509));
#1281=CARTESIAN_POINT('Ctrl Pts',(-9.32931827263782,22.2369719527314,11.5877759038126));
#1282=CARTESIAN_POINT('Ctrl Pts',(-9.45140272802314,22.1845153894332,11.5875177968644));
#1283=CARTESIAN_POINT('Ctrl Pts',(-9.21380074552259,23.2928859403509,12.6220645082426));
#1284=CARTESIAN_POINT('Ctrl Pts',(-9.17441728265616,23.2115996865522,12.5304853018719));
#1285=CARTESIAN_POINT('Ctrl Pts',(-9.14564747348525,23.1174980707309,12.4331026201282));
#1286=CARTESIAN_POINT('Ctrl Pts',(-9.12205070585247,22.9038074627479,12.2333433506088));
#1287=CARTESIAN_POINT('Ctrl Pts',(-9.13394612043038,22.782222126331,12.1330611973145));
#1288=CARTESIAN_POINT('Ctrl Pts',(-9.19678086852872,22.5951086058788,12.0016812884003));
#1289=CARTESIAN_POINT('Ctrl Pts',(-9.23804784808762,22.5152987228698,11.9531268899231));
#1290=CARTESIAN_POINT('Ctrl Pts',(-9.34981599372509,22.3799580318429,11.8882688945517));
#1291=CARTESIAN_POINT('Ctrl Pts',(-9.4199888360573,22.325555452604,11.8717774867807));
#1292=CARTESIAN_POINT('Ctrl Pts',(-9.49759421907526,22.2929369511415,11.8720355937289));
#1293=CARTESIAN_POINT('Ctrl Pts',(-9.31527370685066,23.1323685025435,12.7444566187743));
#1294=CARTESIAN_POINT('Ctrl Pts',(-9.29032152984917,23.0539327891977,12.6623779391946));
#1295=CARTESIAN_POINT('Ctrl Pts',(-9.27742879132013,22.9664441229866,12.5763974973027));
#1296=CARTESIAN_POINT('Ctrl Pts',(-9.28409968989649,22.7795412199287,12.4057007979635));
#1297=CARTESIAN_POINT('Ctrl Pts',(-9.31021305143637,22.6811800018073,12.3244947181356));
#1298=CARTESIAN_POINT('Ctrl Pts',(-9.37602808496023,22.5502453641312,12.2286567757299));
#1299=CARTESIAN_POINT('Ctrl Pts',(-9.41166232306044,22.5015003025516,12.1973804056159));
#1300=CARTESIAN_POINT('Ctrl Pts',(-9.48157872952119,22.4340070904445,12.1622678996727));
#1301=CARTESIAN_POINT('Ctrl Pts',(-9.51290981872293,22.4145127548572,12.1565533905933));
#1302=CARTESIAN_POINT('Ctrl Pts',(-9.54378571012737,22.4013585128498,12.1565533905933));
#1303=CARTESIAN_POINT('Origin',(-60.,-23.9960812858543,9.25));
#1304=CARTESIAN_POINT('',(-60.,-23.9960812858543,9.25));
#1305=CARTESIAN_POINT('Origin',(-60.,-20.,9.25));
#1306=CARTESIAN_POINT('',(-63.9960812858543,-20.,9.25));
#1307=CARTESIAN_POINT('Origin',(-63.9960812858543,20.,9.25));
#1308=CARTESIAN_POINT('',(-63.9960812858543,20.,9.25));
#1309=CARTESIAN_POINT('Origin',(-60.,20.,9.25));
#1310=CARTESIAN_POINT('Origin',(-60.,-20.,9.75));
#1311=CARTESIAN_POINT('',(-58.65,-20.,18.803));
#1312=CARTESIAN_POINT('Origin',(-60.,-20.,18.803));
#1313=CARTESIAN_POINT('',(-58.65,-20.,9.75));
#1314=CARTESIAN_POINT('Origin',(-60.,20.,9.75));
#1315=CARTESIAN_POINT('',(-58.65,20.,18.803));
#1316=CARTESIAN_POINT('Origin',(-60.,20.,18.803));
#1317=CARTESIAN_POINT('',(-58.65,20.,9.75));
#1318=CARTESIAN_POINT('Origin',(-60.,-20.,18.803));
#1319=CARTESIAN_POINT('',(-57.,-20.,18.803));
#1320=CARTESIAN_POINT('Origin',(-60.,-20.,18.803));
#1321=CARTESIAN_POINT('Origin',(-60.,20.,18.803));
#1322=CARTESIAN_POINT('',(-57.,20.,18.803));
#1323=CARTESIAN_POINT('Origin',(-60.,20.,18.803));
#1324=CARTESIAN_POINT('Origin',(-60.,20.,10.25));
#1325=CARTESIAN_POINT('',(-57.,20.,10.25));
#1326=CARTESIAN_POINT('Origin',(-60.,-20.,10.25));
#1327=CARTESIAN_POINT('',(-57.,-20.,10.25));
#1328=UNCERTAINTY_MEASURE_WITH_UNIT(LENGTH_MEASURE(0.01),#1332,
'DISTANCE_ACCURACY_VALUE',
'Maximum model space distance between geometric entities at asserted c
onnectivities');
#1329=UNCERTAINTY_MEASURE_WITH_UNIT(LENGTH_MEASURE(0.01),#1332,
'DISTANCE_ACCURACY_VALUE',
'Maximum model space distance between geometric entities at asserted c
onnectivities');
#1330=(
GEOMETRIC_REPRESENTATION_CONTEXT(3)
GLOBAL_UNCERTAINTY_ASSIGNED_CONTEXT((#1328))
GLOBAL_UNIT_ASSIGNED_CONTEXT((#1332,#1334,#1335))
REPRESENTATION_CONTEXT('','3D')
);
#1331=(
GEOMETRIC_REPRESENTATION_CONTEXT(3)
GLOBAL_UNCERTAINTY_ASSIGNED_CONTEXT((#1329))
GLOBAL_UNIT_ASSIGNED_CONTEXT((#1332,#1334,#1335))
REPRESENTATION_CONTEXT('','3D')
);
#1332=(
LENGTH_UNIT()
NAMED_UNIT(*)
SI_UNIT(.MILLI.,.METRE.)
);
#1333=(
LENGTH_UNIT()
NAMED_UNIT(*)
SI_UNIT($,.METRE.)
);
#1334=(
NAMED_UNIT(*)
PLANE_ANGLE_UNIT()
SI_UNIT($,.RADIAN.)
);
#1335=(
NAMED_UNIT(*)
SI_UNIT($,.STERADIAN.)
SOLID_ANGLE_UNIT()
);
#1336=SHAPE_DEFINITION_REPRESENTATION(#1337,#1338);
#1337=PRODUCT_DEFINITION_SHAPE('',$,#1340);
#1338=SHAPE_REPRESENTATION('',(#622),#1330);
#1339=PRODUCT_DEFINITION_CONTEXT('part definition',#1344,'design');
#1340=PRODUCT_DEFINITION('round-screen-esp32s3-case','SpotiDisplay v51',
#1341,#1339);
#1341=PRODUCT_DEFINITION_FORMATION('',$,#1346);
#1342=PRODUCT_RELATED_PRODUCT_CATEGORY('SpotiDisplay v51',
'SpotiDisplay v51',(#1346));
#1343=APPLICATION_PROTOCOL_DEFINITION('international standard',
'automotive_design',2009,#1344);
#1344=APPLICATION_CONTEXT(
'Core Data for Automotive Mechanical Design Process');
#1345=PRODUCT_CONTEXT('part definition',#1344,'mechanical');
#1346=PRODUCT('round-screen-esp32s3-case','SpotiDisplay v51',$,(#1345));
#1347=PRESENTATION_STYLE_ASSIGNMENT((#1351));
#1348=PRESENTATION_STYLE_ASSIGNMENT((#1352));
#1349=PRESENTATION_STYLE_ASSIGNMENT((#1353));
#1350=PRESENTATION_STYLE_ASSIGNMENT((#1354));
#1351=SURFACE_STYLE_USAGE(.BOTH.,#1355);
#1352=SURFACE_STYLE_USAGE(.BOTH.,#1356);
#1353=SURFACE_STYLE_USAGE(.BOTH.,#1357);
#1354=SURFACE_STYLE_USAGE(.BOTH.,#1358);
#1355=SURFACE_SIDE_STYLE('',(#1359));
#1356=SURFACE_SIDE_STYLE('',(#1360));
#1357=SURFACE_SIDE_STYLE('',(#1361));
#1358=SURFACE_SIDE_STYLE('',(#1362));
#1359=SURFACE_STYLE_FILL_AREA(#1363);
#1360=SURFACE_STYLE_FILL_AREA(#1364);
#1361=SURFACE_STYLE_FILL_AREA(#1365);
#1362=SURFACE_STYLE_FILL_AREA(#1366);
#1363=FILL_AREA_STYLE('Steel - Satin',(#1367));
#1364=FILL_AREA_STYLE('ABS (White)',(#1368));
#1365=FILL_AREA_STYLE('ABS (White)',(#1369));
#1366=FILL_AREA_STYLE('ABS (White)',(#1370));
#1367=FILL_AREA_STYLE_COLOUR('Steel - Satin',#1371);
#1368=FILL_AREA_STYLE_COLOUR('ABS (White)',#1372);
#1369=FILL_AREA_STYLE_COLOUR('ABS (White)',#1373);
#1370=FILL_AREA_STYLE_COLOUR('ABS (White)',#1374);
#1371=COLOUR_RGB('Steel - Satin',0.627450980392157,0.627450980392157,0.627450980392157);
#1372=COLOUR_RGB('ABS (White)',0.964705882352941,0.964705882352941,0.952941176470588);
#1373=COLOUR_RGB('ABS (White)',0.843137254901961,0.698039215686274,0.223529411764706);
#1374=COLOUR_RGB('ABS (White)',0.823529411764706,0.494117647058824,0.168627450980392);
ENDSEC;
END-ISO-10303-21;
